<svg xmlns="http://www.w3.org/2000/svg" width="33" height="33" viewBox="0 0 33 33">
  <g id="iconfinder_1-04_511562" transform="translate(-1.45 -1.5)">
    <g id="Group_566" data-name="Group 566" transform="translate(13.755 7.677)">
      <path id="Path_506" data-name="Path 506" d="M58.163,28.707H49.18a.389.389,0,0,1-.389-.389v-1.3a1.686,1.686,0,0,1,1.684-1.684h6.392a1.686,1.686,0,0,1,1.684,1.684v1.3A.389.389,0,0,1,58.163,28.707Zm-8.595-.777h8.206v-.909a.908.908,0,0,0-.907-.907H50.475a.908.908,0,0,0-.907.907Z" transform="translate(-48.791 -25.337)" fill="#45afe1"/>
    </g>
    <g id="Group_567" data-name="Group 567" transform="translate(13.761 16.58)">
      <path id="Path_507" data-name="Path 507" d="M49.2,68.939a.389.389,0,0,1-.389-.389V60.082a.389.389,0,1,1,.777,0v8.469A.389.389,0,0,1,49.2,68.939Z" transform="translate(-48.813 -59.693)" fill="#45afe1"/>
    </g>
    <g id="Group_568" data-name="Group 568" transform="translate(18.25 16.58)">
      <path id="Path_508" data-name="Path 508" d="M66.525,68.939a.389.389,0,0,1-.389-.389V60.082a.389.389,0,1,1,.777,0v8.469A.389.389,0,0,1,66.525,68.939Z" transform="translate(-66.136 -59.693)" fill="#45afe1"/>
    </g>
    <g id="Group_569" data-name="Group 569" transform="translate(22.738 16.58)">
      <path id="Path_509" data-name="Path 509" d="M83.847,68.939a.389.389,0,0,1-.389-.389V60.082a.389.389,0,1,1,.777,0v8.469A.389.389,0,0,1,83.847,68.939Z" transform="translate(-83.458 -59.693)" fill="#45afe1"/>
    </g>
    <g id="Group_570" data-name="Group 570" transform="translate(9.301 10.27)">
      <path id="Path_510" data-name="Path 510" d="M48.746,39.282H33.132A1.613,1.613,0,0,1,31.605,37.6v-.57a1.613,1.613,0,0,1,1.527-1.684H48.746a1.613,1.613,0,0,1,1.527,1.684v.57A1.613,1.613,0,0,1,48.746,39.282ZM33.132,36.12a.84.84,0,0,0-.749.907v.57a.84.84,0,0,0,.749.907H48.746A.84.84,0,0,0,49.5,37.6v-.57a.84.84,0,0,0-.749-.907Z" transform="translate(-31.605 -35.343)" fill="#313335"/>
    </g>
    <g id="Group_571" data-name="Group 571" transform="translate(10.856 13.431)">
      <path id="Path_511" data-name="Path 511" d="M51.6,62.851H39.174a1.631,1.631,0,0,1-1.568-1.684V47.931a.389.389,0,0,1,.389-.389h14.78a.389.389,0,0,1,.389.389V61.167A1.631,1.631,0,0,1,51.6,62.851ZM38.383,48.319V61.167a.856.856,0,0,0,.791.907H51.6a.856.856,0,0,0,.791-.907V48.319Z" transform="translate(-37.606 -47.542)" fill="#313335"/>
    </g>
    <rect id="_x3C_Slice_x3E__8_" width="33" height="33" transform="translate(1.45 1.5)" fill="none"/>
  </g>
</svg>
