<svg id="iconfinder_finance-money-dollar-45_4058030" xmlns="http://www.w3.org/2000/svg" width="32.336" height="32.6" viewBox="0 0 32.336 32.6">
  <path id="Path_668" data-name="Path 668" d="M69.036,48.288v-.03a.32.32,0,0,0-.007-.037.027.027,0,0,0-.007-.022c-.007-.015-.007-.03-.015-.044A.026.026,0,0,0,69,48.141a.221.221,0,0,0-.03-.059l-.007-.007c-.007-.015-.022-.03-.03-.044s-.007-.015-.015-.015-.015-.022-.03-.03l-.022-.022-.022-.022-6.131-5.017a11.022,11.022,0,0,0-6.905-5.644L53.2,35.141a.522.522,0,0,0-.657,0l-2.612,2.132a11.188,11.188,0,0,0-1.6.575,11.073,11.073,0,0,0-5.3,5.076l-6.131,5.017-.022.022c-.007.007-.015.015-.022.015l-.03.03-.015.015a.154.154,0,0,0-.03.044.007.007,0,0,1-.007.007c-.007.022-.022.037-.03.059a.026.026,0,0,1-.007.015c-.007.015-.007.03-.015.044s-.007.015-.007.022a.319.319,0,0,1-.007.037v14.91a4.465,4.465,0,0,0,4.463,4.463H64.558a4.465,4.465,0,0,0,4.463-4.463V48.318C69.036,48.318,69.036,48.3,69.036,48.288Zm-1.409-.015-.207.125-3.866,2.324c.007-.022.007-.037.015-.059.022-.074.037-.155.059-.229l.022-.089.066-.31a.027.027,0,0,1,.007-.022c.022-.1.037-.192.052-.288.007-.03.007-.066.015-.1.015-.074.022-.155.037-.229.007-.03.007-.059.015-.1.015-.1.022-.214.037-.317v-.015l.022-.31c0-.03.007-.066.007-.1.007-.081.007-.155.015-.236v-.1c0-.111.007-.214.007-.325s0-.236-.007-.362a.558.558,0,0,0-.007-.111c0-.081-.007-.162-.015-.243,0-.044-.007-.089-.007-.133-.007-.081-.015-.155-.022-.229-.007-.044-.007-.081-.015-.125-.007-.081-.022-.17-.03-.251-.007-.037-.007-.066-.015-.1-.015-.118-.037-.236-.052-.347,0-.015-.007-.03-.007-.044-.015-.1-.037-.2-.059-.3-.007-.037-.015-.074-.022-.118-.015-.074-.037-.155-.052-.229-.007-.044-.022-.081-.03-.125-.022-.074-.037-.148-.059-.221-.007-.03-.015-.052-.022-.081ZM52.879,36.211l.863.708a11.237,11.237,0,0,0-1.726,0ZM48.77,38.793a10.433,10.433,0,0,1,1.549-.546A10.009,10.009,0,0,1,54.178,38c.317.044.642.1.952.17.1.022.207.052.31.074h0a10.009,10.009,0,0,1,6.4,5.238,9.9,9.9,0,0,1,1.033,4.427v.31a1.2,1.2,0,0,1-.007.162.454.454,0,0,1-.007.1c0,.044-.007.1-.007.14s-.007.066-.007.1a.813.813,0,0,1-.015.133c0,.037-.007.066-.007.1s-.007.089-.015.133-.007.074-.015.1-.007.089-.015.125-.007.074-.015.1-.015.081-.022.125l-.022.111c-.007.044-.015.081-.022.125l-.022.111c-.007.044-.015.081-.022.125l-.022.111c-.007.044-.022.081-.03.125a.423.423,0,0,1-.03.1c-.007.044-.022.081-.03.118s-.022.074-.03.1-.022.081-.037.118-.022.074-.03.1-.022.081-.037.118-.022.066-.037.1-.03.081-.044.118-.022.066-.037.1-.03.081-.044.118-.022.066-.037.1c-.007.015-.007.022-.015.037l-9.318,5.622-9.325-5.592c0-.007-.007-.015-.007-.022-.015-.03-.022-.066-.037-.1a.649.649,0,0,1-.037-.111c-.015-.03-.022-.066-.037-.1s-.022-.074-.037-.111-.022-.066-.03-.1-.022-.074-.037-.111-.022-.066-.03-.1-.022-.074-.03-.111-.022-.066-.03-.1-.022-.074-.03-.111a.544.544,0,0,0-.03-.1.423.423,0,0,0-.03-.1c-.007-.037-.015-.066-.022-.1s-.015-.066-.022-.1-.015-.074-.022-.1-.015-.066-.022-.1l-.022-.111a.5.5,0,0,1-.015-.1l-.022-.111c-.007-.03-.007-.066-.015-.1a.574.574,0,0,1-.015-.118c-.007-.03-.007-.066-.015-.1s-.007-.081-.015-.118a.42.42,0,0,1-.007-.1c-.007-.037-.007-.081-.015-.118s-.007-.066-.007-.1-.007-.081-.007-.118-.007-.074-.007-.1-.007-.074-.007-.111c0-.059-.007-.118-.007-.17v-.044c-.007-.111-.007-.229-.007-.325s0-.192.007-.288c.007-.184.015-.376.03-.561.007-.118.022-.229.037-.347a10.016,10.016,0,0,1,5.814-7.931Zm-6.507,6.1c-.007.022-.015.052-.022.074-.022.074-.037.148-.059.221-.007.044-.022.081-.03.125-.022.074-.037.155-.052.229-.007.037-.015.074-.022.118-.022.1-.037.192-.059.3,0,.015-.007.037-.007.052-.022.118-.037.229-.052.347-.007.037-.007.066-.015.1-.007.081-.022.162-.03.251-.007.044-.007.089-.015.125-.007.074-.015.155-.022.229,0,.044-.007.089-.007.133-.007.081-.007.162-.015.243a.558.558,0,0,1-.007.111c-.007.118-.007.236-.007.354v.384c0,.089.007.177.015.266,0,.03.007.059.007.089.007.066.007.133.015.192,0,.03.007.066.007.1l.022.2c0,.03.007.052.007.081.007.1.022.184.037.28,0,.015.007.03.007.052.015.074.022.155.037.229.007.03.007.059.015.1.015.066.022.125.037.192.007.03.015.066.022.1.015.066.03.14.044.207.007.022.007.044.015.066.022.089.044.184.066.273v.015l-4.072-2.442ZM64.58,66.6h-23.4a3.432,3.432,0,0,1-3.423-3.431V49.255l2.885,1.734,2.235,1.343h0l9.739,5.843a.515.515,0,0,0,.531,0L67.052,49.83l.959-.575V63.169A3.443,3.443,0,0,1,64.58,66.6Z" transform="translate(-36.7 -35.025)" fill="#52add8"/>
  <path id="Path_669" data-name="Path 669" d="M195.357,121.776a7.261,7.261,0,0,0,3.475,1.321v1.048a.74.74,0,0,0,.745.73.727.727,0,0,0,.73-.73v-1.018c2.147-.207,3.608-1.439,3.608-3.305,0-1.815-1.1-2.848-3.674-3.49v-3.254a6.076,6.076,0,0,1,1.741.745.972.972,0,0,0,.509.155.935.935,0,0,0,.952-.93.9.9,0,0,0-.509-.812,6.115,6.115,0,0,0-2.626-.93v-.376a.727.727,0,0,0-.73-.73.74.74,0,0,0-.745.73v.354c-2.117.17-3.556,1.424-3.556,3.231,0,1.911,1.151,2.848,3.622,3.49v3.335a6.034,6.034,0,0,1-2.508-1.136.929.929,0,0,0-.561-.184.917.917,0,0,0-.93.93A.935.935,0,0,0,195.357,121.776Zm4.877-3.438c1.306.406,1.675.863,1.675,1.608,0,.812-.59,1.357-1.675,1.476Zm-2.958-3.925c0-.745.539-1.321,1.623-1.424v3C197.593,115.564,197.276,115.121,197.276,114.413Z" transform="translate(-183.229 -104.654)" fill="#52add8"/>
</svg>
