<svg xmlns="http://www.w3.org/2000/svg" xmlns:xlink="http://www.w3.org/1999/xlink" width="65" height="65" viewBox="0 0 65 65">
  <defs>
    <linearGradient id="linear-gradient" x1="0.5" y1="1" x2="0.5" gradientUnits="objectBoundingBox">
      <stop offset="0" stop-color="#007cb6"/>
      <stop offset="1" stop-color="#7ad8fc"/>
    </linearGradient>
    <filter id="Ellipse_16" x="0" y="0" width="65" height="65" filterUnits="userSpaceOnUse">
      <feOffset dy="3" input="SourceAlpha"/>
      <feGaussianBlur stdDeviation="3" result="blur"/>
      <feFlood flood-opacity="0.161"/>
      <feComposite operator="in" in2="blur"/>
      <feComposite in="SourceGraphic"/>
    </filter>
  </defs>
  <g id="iconfinder_message_1645994" transform="translate(9 6)">
    <g transform="matrix(1, 0, 0, 1, -9, -6)" filter="url(#Ellipse_16)">
      <circle id="Ellipse_16-2" data-name="Ellipse 16" cx="23.5" cy="23.5" r="23.5" transform="translate(9 6)" fill="url(#linear-gradient)"/>
    </g>
    <g id="Group_600" data-name="Group 600" transform="translate(10.825 11.382)">
      <path id="Path_526" data-name="Path 526" d="M130.74,123.4c-6.966,0-12.64,4.9-12.64,10.944a9.774,9.774,0,0,0,.532,3.153l2.851,9.844a.509.509,0,0,0,.385.357.376.376,0,0,0,.1.009.518.518,0,0,0,.394-.183l2.786-3.373a14.27,14.27,0,0,0,5.591,1.127c6.966,0,12.64-4.9,12.64-10.944S137.706,123.4,130.74,123.4Zm0,20.87a13.277,13.277,0,0,1-5.527-1.192.507.507,0,0,0-.6.137l-2.42,2.924-2.594-8.946c0-.009-.009-.018-.009-.027a8.548,8.548,0,0,1-.477-2.832c0-5.472,5.215-9.927,11.631-9.927s11.631,4.455,11.631,9.927S137.156,144.27,130.74,144.27Z" transform="translate(-118.1 -123.4)" fill="#fff"/>
      <path id="Path_527" data-name="Path 527" d="M237.524,222.4a1.824,1.824,0,1,0,1.824,1.824A1.823,1.823,0,0,0,237.524,222.4Zm0,2.64a.807.807,0,1,1,.807-.807A.808.808,0,0,1,237.524,225.04Z" transform="translate(-224.921 -213.326)" fill="#fff"/>
      <path id="Path_528" data-name="Path 528" d="M285.924,222.4a1.824,1.824,0,1,0,1.824,1.824A1.823,1.823,0,0,0,285.924,222.4Zm0,2.64a.807.807,0,1,1,.807-.807A.808.808,0,0,1,285.924,225.04Z" transform="translate(-268.885 -213.326)" fill="#fff"/>
      <path id="Path_529" data-name="Path 529" d="M189.924,222.4a1.824,1.824,0,1,0,1.824,1.824A1.823,1.823,0,0,0,189.924,222.4Zm0,2.64a.807.807,0,1,1,.807-.807A.808.808,0,0,1,189.924,225.04Z" transform="translate(-181.684 -213.326)" fill="#fff"/>
    </g>
  </g>
</svg>
