<svg id="Component_35_1" data-name="Component 35 – 1" xmlns="http://www.w3.org/2000/svg" xmlns:xlink="http://www.w3.org/1999/xlink" width="29.65" height="29.65" viewBox="0 0 29.65 29.65">
  <defs>
    <clipPath id="clip-path">
      <rect id="Rectangle_1549" data-name="Rectangle 1549" width="14.191" height="14.218" fill="#fff"/>
    </clipPath>
  </defs>
  <g id="Group_261" data-name="Group 261">
    <path id="Path_49" data-name="Path 49" d="M-61.175,64A14.841,14.841,0,0,0-76,78.825,14.841,14.841,0,0,0-61.175,93.65,14.841,14.841,0,0,0-46.35,78.825,14.841,14.841,0,0,0-61.175,64Zm0,0" transform="translate(76 -64)" fill="#45afe1"/>
  </g>
  <g id="Group_260" data-name="Group 260" transform="translate(8.136 7.891)" style="isolation: isolate">
    <g id="Group_149" data-name="Group 149" transform="translate(0 0)">
      <g id="Group_148" data-name="Group 148" transform="translate(0)" clip-path="url(#clip-path)">
        <path id="Path_56" data-name="Path 56" d="M-64.484,77.662-68.9,73.243l-4.419,4.419a1.569,1.569,0,0,1-2.218,0,1.569,1.569,0,0,1,0-2.218l4.419-4.419-4.419-4.419a1.569,1.569,0,0,1,0-2.218,1.569,1.569,0,0,1,2.218,0l4.419,4.419,4.419-4.419a1.569,1.569,0,0,1,2.218,0,1.569,1.569,0,0,1,0,2.218l-4.419,4.419,4.419,4.419a1.569,1.569,0,0,1,0,2.218,1.569,1.569,0,0,1-2.218,0Zm0,0" transform="translate(76 -63.93)" fill="#fff"/>
      </g>
    </g>
  </g>
</svg>
