<svg id="Component_37_1" data-name="Component 37 – 1" xmlns="http://www.w3.org/2000/svg" width="37" height="37" viewBox="0 0 37 37">
  <circle id="_129-512" data-name="129-512" cx="18.5" cy="18.5" r="18.5" fill="#f5f5f5"/>
  <g id="Group_49" data-name="Group 49" transform="translate(7.766 5.482)">
    <path id="Path_82" data-name="Path 82" d="M84.823,127.4a6.2,6.2,0,1,0-4.382-1.816,6,6,0,0,0,4.382,1.816Zm0,0" transform="translate(-74.251 -115)" fill="#45afe1"/>
    <path id="Path_83" data-name="Path 83" d="M30.418,320.21a15.321,15.321,0,0,0-.209-1.626,12.8,12.8,0,0,0-.4-1.635,8.089,8.089,0,0,0-.672-1.525,5.748,5.748,0,0,0-1.013-1.321,4.468,4.468,0,0,0-1.456-.915,5.031,5.031,0,0,0-1.859-.336,1.885,1.885,0,0,0-1.007.427c-.3.2-.655.424-1.049.677a6.012,6.012,0,0,1-1.358.6,5.272,5.272,0,0,1-3.321,0,6,6,0,0,1-1.357-.6c-.39-.25-.744-.477-1.05-.677a1.886,1.886,0,0,0-1.007-.427,5.026,5.026,0,0,0-1.858.337,4.463,4.463,0,0,0-1.456.915,5.75,5.75,0,0,0-1.013,1.32,8.094,8.094,0,0,0-.672,1.525,12.783,12.783,0,0,0-.4,1.635,15.267,15.267,0,0,0-.209,1.627c-.034.492-.051,1-.051,1.52a4.274,4.274,0,0,0,1.269,3.233,4.57,4.57,0,0,0,3.27,1.193H25.93a4.569,4.569,0,0,0,3.27-1.193,4.272,4.272,0,0,0,1.269-3.233c0-.519-.018-1.03-.052-1.52Zm0,0" transform="translate(-9 -300.421)" fill="#45afe1"/>
  </g>
</svg>
