<svg id="icons" xmlns="http://www.w3.org/2000/svg" width="23.4" height="28" viewBox="0 0 23.4 28">
  <g id="gift_x5F_box" transform="translate(-4.3 -2)">
    <path id="Path_677" data-name="Path 677" d="M24.8,6.5a3.211,3.211,0,0,0-1.2-3.3A3.482,3.482,0,0,0,21.1,2c-2.5,0-4.3,3.5-5.2,5.8C15,5.5,13.2,2,10.7,2A3.482,3.482,0,0,0,8.2,3.2,3.211,3.211,0,0,0,7,6.5c.9,3,7.3,4.2,8.6,4.4h.6C17.5,10.7,23.9,9.5,24.8,6.5ZM8.7,6c-.2-.5.1-1,.7-1.6a2.4,2.4,0,0,1,1.3-.7c1.4,0,2.9,2.7,3.8,5.2C11.9,8.3,9,7.2,8.7,6ZM23.1,6c-.4,1.2-3.3,2.3-5.8,2.9.8-2.2,2.3-5.2,3.8-5.2a1.877,1.877,0,0,1,1.3.7C23,5,23.3,5.5,23.1,6Z" fill="#ff343b"/>
    <path id="Path_678" data-name="Path 678" d="M4.4,17.2H14.9V12H6.1a1.793,1.793,0,0,0-1.8,1.8v3.4Z" fill="#ff343b"/>
    <path id="Path_679" data-name="Path 679" d="M17.2,12v5.2H27.7V13.7a1.793,1.793,0,0,0-1.8-1.8H17.2Z" fill="#ff343b"/>
    <path id="Path_680" data-name="Path 680" d="M5.5,30h9.3V19.3a1,1,0,0,0-1-1H6.5a1,1,0,0,0-1,1Z" fill="#ff343b"/>
    <path id="Path_681" data-name="Path 681" d="M17.2,30h9.3V19.3a1,1,0,0,0-1-1H18.2a1,1,0,0,0-1,1Z" fill="#ff343b"/>
  </g>
</svg>
