<svg id="red-card" xmlns="http://www.w3.org/2000/svg" width="22.774" height="22.774" viewBox="0 0 22.774 22.774">
  <path id="Path_869" data-name="Path 869" d="M79.065,73.377l-2.3,2.045-2.047-2.047-1.342,1.342,1.968,1.968-1.966,1.747,1.259,1.42,2.051-1.823,1.825,1.825,1.342-1.342-1.747-1.747,2.219-1.972Zm0,0" transform="translate(-69.024 -69.023)" fill="#555"/>
  <path id="Path_870" data-name="Path 870" d="M15.183,0H0V15.183H2.847V20l4.745-3.8v6.567H22.774V3.81H15.183ZM7.616,13.76H7.591v.019L4.745,16.055v-2.77H1.9V1.9H13.285V13.285H8.209ZM20.877,5.708V20.877H9.489V15.183h5.694V5.708Zm0,0" fill="#555"/>
  <path id="Path_871" data-name="Path 871" d="M192,288h7.591v1.9H192Zm0,0" transform="translate(-180.613 -270.919)" fill="#555"/>
</svg>
