<svg id="Component_34_1" data-name="Component 34 – 1" xmlns="http://www.w3.org/2000/svg" xmlns:xlink="http://www.w3.org/1999/xlink" width="417.677" height="391.818" viewBox="0 0 417.677 391.818">
  <defs>
    <linearGradient id="linear-gradient" x1="0.5" y1="0.237" x2="0.5" y2="0.962" gradientUnits="objectBoundingBox">
      <stop offset="0" stop-color="#14bee4"/>
      <stop offset="1" stop-color="#1a83c8"/>
    </linearGradient>
    <clipPath id="clip-path"/>
  </defs>
  <g id="BACKGROUND" transform="translate(0 -38)">
    <rect id="Rectangle_1741" data-name="Rectangle 1741" width="415.745" height="379.744" transform="translate(0.027 38.01)" fill="#ebf2fa"/>
    <rect id="Rectangle_1742" data-name="Rectangle 1742" width="415.744" height="379.744" transform="translate(0 38)" fill="url(#linear-gradient)"/>
  </g>
  <g id="OBJECTS" transform="translate(-39.347 3.64)">
    <g id="Group_646" data-name="Group 646" transform="translate(0)">
      <g id="Group_645" data-name="Group 645" clip-path="url(#clip-path)">
        <g id="Group_644" data-name="Group 644">
          <g id="Group_633" data-name="Group 633" transform="translate(40 256.02)" opacity="0.26">
            <path id="Path_598" data-name="Path 598" d="M281.1,358.013c-4.995,0-9.044,4.488-9.044,10.026a11.1,11.1,0,0,0,.132,1.711,14.4,14.4,0,0,0-15.025.862c-2.584-6.813-8.66-11.6-15.745-11.6-8.374,0-15.339,6.684-16.792,15.5a10.178,10.178,0,0,0-5.253-1.466c-6.118,0-11.079,5.5-11.079,12.282a13.585,13.585,0,0,0,.252,2.613q-.4.247-.792.521a15.389,15.389,0,0,0-11.557-5.391,14.951,14.951,0,0,0-8.554,2.713c-2.325-5.315-7.239-8.979-12.926-8.979-7.845,0-14.22,6.975-14.354,15.637a16.272,16.272,0,0,0-5.883-1.1,16.519,16.519,0,0,0-9.4,2.959c-3.468-7.275-10.362-12.233-18.3-12.233-8.435,0-15.69,5.6-18.911,13.623a13.019,13.019,0,0,0-6.222,3.571A16.81,16.81,0,0,0,90.333,394.8a17.479,17.479,0,0,0-14.747,8.576c-3.71-6.619-10.327-11.027-17.873-11.027a20.36,20.36,0,0,0-16.691,9.134,15.668,15.668,0,0,0-11.008-4.622c-6.229,0-11.657,3.8-14.5,9.423a14.9,14.9,0,0,0-12.63-7.418c-8.429,0-15.262,7.575-15.262,16.919v34.338H380.6v-1.83c11.843-1.613,21.014-12.8,21.014-26.367,0-9.705-4.695-18.193-11.7-22.829a21.14,21.14,0,0,0,.624-5.117c0-10.59-7.744-19.174-17.3-19.174a16.494,16.494,0,0,0-12.5,5.922c-3.224-7.362-10.032-12.439-17.91-12.439a18.161,18.161,0,0,0-7.556,1.648c-1.455-7.809-7.693-13.679-15.168-13.679-7.44,0-13.653,5.816-15.145,13.569a14.679,14.679,0,0,0-9.5-3.543,14.322,14.322,0,0,0-5.338,1.031C289.791,362.116,285.881,358.013,281.1,358.013Z" transform="translate(12.381 -356.258)" fill="#42c5ee" fill-rule="evenodd"/>
          </g>
          <path id="Path_599" data-name="Path 599" d="M112.968,224.262l23.718,21.452,22.771,162.153L122.5,406.549Z" transform="translate(201.768 -78.524)" fill="#42c5ee" fill-rule="evenodd"/>
          <path id="Path_600" data-name="Path 600" d="M196.773,224.262l-23.718,21.452L150.283,407.867l36.956-1.319Z" transform="translate(133.406 -78.524)" fill="#42c5ee" fill-rule="evenodd"/>
          <path id="Path_601" data-name="Path 601" d="M119.221,393.963c5.032,0,9.11,4.488,9.11,10.025a11.025,11.025,0,0,1-.132,1.712,14.593,14.593,0,0,1,15.134.862c2.6-6.813,8.722-11.6,15.859-11.6,8.435,0,15.452,6.685,16.915,15.5A10.31,10.31,0,0,1,181.4,409c6.163,0,11.16,5.5,11.16,12.281a13.491,13.491,0,0,1-.254,2.614c.271.165.538.338.8.521a15.549,15.549,0,0,1,11.641-5.391,15.128,15.128,0,0,1,8.617,2.714,14.421,14.421,0,0,1,13.02-8.979c7.9,0,14.324,6.975,14.46,15.637a16.493,16.493,0,0,1,5.925-1.1,16.717,16.717,0,0,1,9.466,2.959c3.494-7.275,10.438-12.233,18.435-12.233,8.5,0,15.8,5.6,19.049,13.623a13.136,13.136,0,0,1,6.267,3.57,17,17,0,0,1,11.405-4.466,17.632,17.632,0,0,1,14.855,8.575c3.736-6.619,10.4-11.026,18-11.026a20.547,20.547,0,0,1,16.813,9.133,15.839,15.839,0,0,1,11.087-4.621,16.557,16.557,0,0,1,14.609,9.423,15.031,15.031,0,0,1,12.722-7.418c8.491,0,15.374,7.575,15.374,16.919v34.338H18.994v-1.83c-11.93-1.613-21.167-12.8-21.167-26.368A27.175,27.175,0,0,1,9.614,435.047a21.026,21.026,0,0,1-.628-5.116c0-10.59,7.8-19.175,17.423-19.175A16.66,16.66,0,0,1,39,416.678c3.247-7.362,10.106-12.439,18.041-12.439a18.406,18.406,0,0,1,7.611,1.648c1.466-7.808,7.749-13.679,15.279-13.679,7.494,0,13.753,5.816,15.257,13.569a14.847,14.847,0,0,1,9.569-3.543,14.514,14.514,0,0,1,5.376,1.031C110.471,398.066,114.411,393.963,119.221,393.963Z" transform="translate(42.173 -106.153)" fill="#42c5ee" fill-rule="evenodd"/>
          <g id="Group_634" data-name="Group 634" transform="translate(290.975 160.69)" opacity="0.69">
            <path id="Path_602" data-name="Path 602" d="M160.03,242.158l8.78,15.719,15.718,199.7H120.76l15.718-199.7,8.78-15.719,7.386.519Z" transform="translate(-120.76 -242.158)" fill="#fff" fill-rule="evenodd"/>
          </g>
          <g id="Group_635" data-name="Group 635" transform="translate(309.021 155.353)" opacity="0.69">
            <path id="Path_603" data-name="Path 603" d="M159.493,235.769l3.81,15.719,6.821,199.7H142.45l6.822-199.7,3.81-15.719,3.206.518Z" transform="translate(-142.45 -235.769)" fill="#fff" fill-rule="evenodd"/>
          </g>
          <path id="Path_604" data-name="Path 604" d="M162.727,241.934c.349.4,5.678,3.355,5.678,3.355s.846.846,2.042,4.948a61.571,61.571,0,0,1,1.593,7.753,23.108,23.108,0,0,0-2.34-3.051,58.778,58.778,0,0,1,1.1,9.653,52.245,52.245,0,0,1-.548,8.253,32.894,32.894,0,0,0-1.494-4.451,45.607,45.607,0,0,1-2.39,10.5c-1.893,5-3.287,7.6-3.188,6.9a41.078,41.078,0,0,0-1.295-5.5,49.412,49.412,0,0,1-3.587,13c-1.031,2.256-1.857,3.992-2.49,5.284-.633-1.293-1.46-3.029-2.491-5.284a49.43,49.43,0,0,1-3.586-13,41.191,41.191,0,0,0-1.3,5.5c.1.7-1.295-1.9-3.187-6.9a45.634,45.634,0,0,1-2.391-10.5,32.891,32.891,0,0,0-1.494,4.451,52.445,52.445,0,0,1-.547-8.253,58.776,58.776,0,0,1,1.1-9.653,23.109,23.109,0,0,0-2.341,3.051,61.686,61.686,0,0,1,1.594-7.753c1.2-4.1,2.042-4.948,2.042-4.948s5.33-2.955,5.678-3.355l6.924-.2Z" transform="translate(167.055 -81.399)" fill="#f9b059" fill-rule="evenodd"/>
          <path id="Path_605" data-name="Path 605" d="M168.517,249.757l-2.008-2.263,1.706,8.358a54.735,54.735,0,0,1,.839,5.535l-.927-2.376-.9,9.621a40.434,40.434,0,0,1-2.251,9.9q-.171.452-.346.9l-2.986-10.216-1.285,11.267a44.429,44.429,0,0,1-3.392,12.308q-.206.45-.413.9-.207-.449-.413-.9a44.424,44.424,0,0,1-3.393-12.308l-1.285-11.267-2.985,10.216q-.176-.451-.346-.9a40.36,40.36,0,0,1-2.251-9.9l-.9-9.621-.927,2.376a54.735,54.735,0,0,1,.84-5.535l1.706-8.358-2.008,2.263a14,14,0,0,1,.924-2.26q1.232-.687,2.455-1.39c.557-.321,1.615-.894,2.433-1.444l6.148-.175,6.148.175c.818.55,1.876,1.123,2.433,1.444q1.222.7,2.455,1.39A14,14,0,0,1,168.517,249.757Z" transform="translate(166.301 -81.851)" fill="#f7ce78" fill-rule="evenodd"/>
          <path id="Path_606" data-name="Path 606" d="M157.29,286.261a39.19,39.19,0,0,1-1.075-5.543l-2.83-24.81-3.977,13.608h0l-1.142-12.274,1.655-8.109.154-.089c.637-.367,1.277-.719,1.9-1.1l5.313-.151,5.312.151c.625.382,1.265.734,1.9,1.1l.154.089,1.6,7.834c.008.155.022.4.031.556l-1.116,11.994-3.978-13.609-2.83,24.81A39.226,39.226,0,0,1,157.29,286.261Z" transform="translate(165.569 -82.395)" fill="#f6f0eb" fill-rule="evenodd"/>
          <g id="Group_636" data-name="Group 636" transform="translate(306.934 152.965)">
            <path id="Path_607" data-name="Path 607" d="M168.082,232.911H144.111l-3.774,14.226h31.52Z" transform="translate(-140.337 -232.911)" fill="#265fa6" fill-rule="evenodd"/>
            <path id="Path_608" data-name="Path 608" d="M141.339,237.036h-1q.557,2.276,1.188,4.854l1.45,5.926H144.2l-1.572-5.927Q141.942,239.31,141.339,237.036Z" transform="translate(-112.678 -233.59)" fill="#22589c" fill-rule="evenodd"/>
            <path id="Path_609" data-name="Path 609" d="M144.978,237.036h-1q.441,2.276.94,4.854.535,2.76,1.149,5.926h1.226l-1.27-5.926Q145.465,239.31,144.978,237.036Z" transform="translate(-118.795 -233.59)" fill="#22589c" fill-rule="evenodd"/>
            <path id="Path_610" data-name="Path 610" d="M148.618,237.036h-1q.326,2.276.693,4.854.394,2.76.846,5.926h1.226q-.519-3.172-.968-5.926Q148.989,239.31,148.618,237.036Z" transform="translate(-124.914 -233.59)" fill="#22589c" fill-rule="evenodd"/>
            <path id="Path_611" data-name="Path 611" d="M152.259,237.036h-1q.21,2.276.446,4.854c.168,1.84.349,3.812.543,5.926h1.226q-.357-3.172-.666-5.926Q152.515,239.31,152.259,237.036Z" transform="translate(-131.035 -233.59)" fill="#22589c" fill-rule="evenodd"/>
            <path id="Path_612" data-name="Path 612" d="M155.9,237.036h-1q.094,2.276.2,4.854c.075,1.84.156,3.812.241,5.926h1.226c-.13-2.115-.25-4.086-.364-5.926Q156.04,239.31,155.9,237.036Z" transform="translate(-137.155 -233.59)" fill="#22589c" fill-rule="evenodd"/>
            <path id="Path_613" data-name="Path 613" d="M159.65,237.036h-1q-.024,2.276-.05,4.854c-.019,1.84-.039,3.812-.061,5.926h1.226c-.022-2.115-.042-4.086-.062-5.926Q159.674,239.31,159.65,237.036Z" transform="translate(-143.384 -233.59)" fill="#22589c" fill-rule="evenodd"/>
            <path id="Path_614" data-name="Path 614" d="M163.315,237.036h-1q-.14,2.276-.3,4.854c-.113,1.84-.234,3.812-.364,5.926h1.226c.086-2.115.166-4.086.24-5.926Q163.223,239.31,163.315,237.036Z" transform="translate(-149.528 -233.59)" fill="#22589c" fill-rule="evenodd"/>
            <path id="Path_615" data-name="Path 615" d="M166.845,237.036h-1l-.545,4.854c-.206,1.84-.428,3.811-.666,5.926h1.226c.194-2.115.374-4.086.543-5.926Q166.637,239.31,166.845,237.036Z" transform="translate(-155.538 -233.59)" fill="#22589c" fill-rule="evenodd"/>
            <path id="Path_616" data-name="Path 616" d="M170.374,237.036h-1q-.372,2.278-.793,4.854c-.3,1.84-.622,3.811-.967,5.926h1.226c.3-2.115.583-4.086.845-5.926Q170.05,239.31,170.374,237.036Z" transform="translate(-161.546 -233.59)" fill="#22589c" fill-rule="evenodd"/>
            <path id="Path_617" data-name="Path 617" d="M173.9,237.036h-1l-1.04,4.854c-.394,1.84-.816,3.811-1.27,5.926h1.226c.409-2.115.791-4.086,1.147-5.926Q173.464,239.31,173.9,237.036Z" transform="translate(-167.556 -233.59)" fill="#22589c" fill-rule="evenodd"/>
            <path id="Path_618" data-name="Path 618" d="M177.44,237.036h-1.008q-.6,2.278-1.288,4.854l-1.573,5.926H174.8l1.45-5.926Q176.884,239.31,177.44,237.036Z" transform="translate(-173.571 -233.59)" fill="#22589c" fill-rule="evenodd"/>
          </g>
          <g id="Group_637" data-name="Group 637" transform="translate(339.234 131.178)">
            <path id="Path_619" data-name="Path 619" d="M106.976,206.835c.49.394,21.643,14.67,22.95,16.737s3.349,24.219,3.349,24.219l-10.046-12.6-20.284-4.18Z" transform="translate(-102.946 -206.835)" fill="#e4761d" fill-rule="evenodd"/>
            <path id="Path_620" data-name="Path 620" d="M107.708,222.23c6.787,2.652,16.449,6.483,16.449,6.483l9.118,21.611-10.046-12.6-20.284-4.18A103.074,103.074,0,0,0,107.708,222.23Z" transform="translate(-102.946 -209.368)" fill="#db6e00" fill-rule="evenodd"/>
            <path id="Path_621" data-name="Path 621" d="M103.875,229.989l9.118,21.611L102.946,239Z" transform="translate(-82.663 -210.644)" fill="#ce6612" fill-rule="evenodd"/>
          </g>
          <g id="Group_638" data-name="Group 638" transform="translate(275.825 131.178)">
            <path id="Path_622" data-name="Path 622" d="M205.456,206.835c-.49.394-21.643,14.67-22.95,16.737s-3.348,24.219-3.348,24.219l10.045-12.6,20.284-4.18Z" transform="translate(-179.158 -206.835)" fill="#e4761d" fill-rule="evenodd"/>
            <path id="Path_623" data-name="Path 623" d="M204.725,222.23c-6.787,2.652-16.45,6.483-16.45,6.483l-9.117,21.611,10.045-12.6,20.284-4.18A102.9,102.9,0,0,1,204.725,222.23Z" transform="translate(-179.158 -209.368)" fill="#db6e00" fill-rule="evenodd"/>
            <path id="Path_624" data-name="Path 624" d="M212.655,229.989,203.538,251.6,213.583,239Z" transform="translate(-203.538 -210.644)" fill="#ce6612" fill-rule="evenodd"/>
          </g>
          <path id="Path_625" data-name="Path 625" d="M153.523,61.842c-29.5,37.247-37.968,102-16.54,145.314h33.08C191.492,163.843,183.027,99.089,153.523,61.842Z" transform="translate(169.171 -51.804)" fill="#e5eef9" fill-rule="evenodd"/>
          <path id="Path_626" data-name="Path 626" d="M154.892,61.842c9.543,12.048,16.886,26.974,21.726,43.121H133.166C138.007,88.816,145.349,73.89,154.892,61.842Z" transform="translate(167.801 -51.804)" fill="#e4761d" fill-rule="evenodd"/>
          <path id="Path_627" data-name="Path 627" d="M132.966,113.454h43.453q.514,1.713.99,3.446H131.976Q132.452,115.168,132.966,113.454Z" transform="translate(168.001 -60.294)" fill="#4985c8" fill-rule="evenodd"/>
          <path id="Path_866" data-name="Path 866" d="M16.227.009A16.292,16.292,0,1,1,.009,16.292,16.282,16.282,0,0,1,16.227.009Z" transform="translate(336.519 106.796) rotate(-172.049)" fill="#e47d7d"/>
          <path id="Path_867" data-name="Path 867" d="M13.923.008A13.979,13.979,0,1,1,.008,13.979,13.97,13.97,0,0,1,13.923.008Z" transform="translate(334.555 104.185) rotate(-172.046)" fill="#17b8f7"/>
          <path id="Path_628" data-name="Path 628" d="M155.885,152.2a15.267,15.267,0,0,0,15.236,15.3q.655,0,1.3-.054a13.98,13.98,0,0,1-15.132-21.663A15.294,15.294,0,0,0,155.885,152.2Z" transform="translate(154.154 -65.614)" fill="#0ea8ee" fill-rule="evenodd"/>
          <path id="Path_629" data-name="Path 629" d="M159.175,137.078l-.206.1-.206.1-.051.224-.051.224.143.18.142.179h.457l.142-.179.143-.18-.051-.224-.051-.224-.206-.1Z" transform="translate(163.519 -64.181)" fill="#31587d" fill-rule="evenodd"/>
          <path id="Path_630" data-name="Path 630" d="M146.843,142.485l-.216-.076-.216-.076-.194.122-.193.122-.026.228-.025.228.162.163.162.162.227-.026.227-.026.122-.194.122-.194-.076-.217Z" transform="translate(186.771 -65.045)" fill="#31587d" fill-rule="evenodd"/>
          <path id="Path_631" data-name="Path 631" d="M141.72,155.538l-.1-.207-.1-.207-.223-.051-.223-.051-.179.143-.179.143v.459l.179.143.179.143L141.3,156l.223-.051.1-.207Z" transform="translate(196.417 -67.133)" fill="#31587d" fill-rule="evenodd"/>
          <path id="Path_632" data-name="Path 632" d="M146.843,168.592l.075-.217.076-.217-.122-.194-.122-.195-.227-.026-.227-.026-.162.163-.162.162.025.228.026.228.193.122.194.122.216-.076Z" transform="translate(186.771 -69.221)" fill="#31587d" fill-rule="evenodd"/>
          <path id="Path_633" data-name="Path 633" d="M159.175,174l.206-.1.206-.1.051-.224.051-.224-.143-.18L159.4,173h-.457l-.142.18-.143.18.051.224.051.224.206.1Z" transform="translate(163.519 -70.09)" fill="#31587d" fill-rule="evenodd"/>
          <path id="Path_634" data-name="Path 634" d="M171.509,168.592l.216.076.216.076.194-.122.193-.122.026-.228.025-.228-.162-.162-.162-.163-.227.026-.227.026-.122.195-.122.194.076.217Z" transform="translate(140.265 -69.221)" fill="#31587d" fill-rule="evenodd"/>
          <path id="Path_635" data-name="Path 635" d="M176.636,155.538l.1.207.1.207.223.051.223.051.179-.143.179-.143v-.459l-.179-.143-.179-.143-.223.051-.223.051-.1.207Z" transform="translate(130.615 -67.133)" fill="#31587d" fill-rule="evenodd"/>
          <path id="Path_636" data-name="Path 636" d="M171.509,142.485l-.075.217-.076.217.122.194.122.194.227.026.227.026.162-.162.162-.163-.025-.228-.026-.228-.193-.122-.194-.122-.216.076Z" transform="translate(140.265 -65.045)" fill="#31587d" fill-rule="evenodd"/>
          <rect id="Rectangle_1743" data-name="Rectangle 1743" width="33.08" height="5.338" transform="translate(306.154 155.352)" fill="#4985c8"/>
          <g id="Group_639" data-name="Group 639" transform="translate(307.671 157.244)">
            <path id="Path_637" data-name="Path 637" d="M142.116,238.033l-.358.173-.358.173-.089.389-.088.389.248.312.248.312h.795l.248-.312.248-.312-.088-.389-.089-.389-.358-.173Z" transform="translate(-112.963 -238.033)" fill="#31587d" fill-rule="evenodd"/>
            <path id="Path_638" data-name="Path 638" d="M150.608,238.033l-.358.173-.358.173-.088.389-.088.389.248.312.248.312h.8l.248-.312.248-.312-.088-.389-.088-.389-.358-.173Z" transform="translate(-128.52 -238.033)" fill="#31587d" fill-rule="evenodd"/>
            <path id="Path_639" data-name="Path 639" d="M159.1,238.033l-.358.173-.358.173-.088.389-.088.389.248.312.248.312h.8l.248-.312.248-.312-.088-.389-.088-.389-.358-.173Z" transform="translate(-144.076 -238.033)" fill="#31587d" fill-rule="evenodd"/>
            <path id="Path_640" data-name="Path 640" d="M167.59,238.033l-.358.173-.358.173-.089.389-.088.389.248.312.248.312h.8l.248-.312.248-.312-.088-.389-.089-.389-.358-.173Z" transform="translate(-159.632 -238.033)" fill="#31587d" fill-rule="evenodd"/>
            <path id="Path_641" data-name="Path 641" d="M176.081,238.033l-.358.173-.358.173-.089.389-.088.389.248.312.248.312h.8l.248-.312.248-.312-.088-.389-.089-.389-.358-.173Z" transform="translate(-175.188 -238.033)" fill="#31587d" fill-rule="evenodd"/>
          </g>
          <g id="Group_640" data-name="Group 640" transform="translate(320.1 133.814)">
            <path id="Path_642" data-name="Path 642" d="M161.873,209.99l-2.594,9.939,2.594,28.38Z" transform="translate(-159.279 -209.99)" fill="#ac5a2a" fill-rule="evenodd"/>
            <path id="Path_643" data-name="Path 643" d="M156.162,209.99l2.594,9.939-2.594,28.38Z" transform="translate(-153.568 -209.99)" fill="#db6e00" fill-rule="evenodd"/>
          </g>
          <path id="Path_644" data-name="Path 644" d="M265.637,403.846c-4.995,0-9.044,4.489-9.044,10.026a11.124,11.124,0,0,0,.132,1.712,14.4,14.4,0,0,0-15.025.862c-2.584-6.813-8.66-11.6-15.744-11.6-8.374,0-15.339,6.685-16.792,15.5a10.185,10.185,0,0,0-5.253-1.466c-6.118,0-11.079,5.5-11.079,12.282a13.586,13.586,0,0,0,.252,2.614q-.4.247-.792.521a15.387,15.387,0,0,0-11.557-5.391,14.951,14.951,0,0,0-8.554,2.713c-2.325-5.315-7.239-8.979-12.926-8.979-7.845,0-14.22,6.975-14.354,15.637a16.272,16.272,0,0,0-5.883-1.1,16.514,16.514,0,0,0-9.4,2.96c-3.468-7.275-10.362-12.234-18.3-12.234-8.435,0-15.69,5.6-18.911,13.623a13.025,13.025,0,0,0-6.222,3.571,16.81,16.81,0,0,0-11.322-4.467,17.479,17.479,0,0,0-14.747,8.576c-3.71-6.619-10.326-11.027-17.873-11.027a20.361,20.361,0,0,0-16.691,9.134,15.668,15.668,0,0,0-11.008-4.622c-6.229,0-11.657,3.8-14.5,9.423a14.9,14.9,0,0,0-12.63-7.418c-8.428,0-15.261,7.575-15.261,16.919v34.338H365.137v-1.83c11.843-1.613,21.014-12.8,21.014-26.367,0-9.7-4.695-18.192-11.7-22.829a21.141,21.141,0,0,0,.624-5.117c0-10.59-7.744-19.174-17.3-19.174a16.494,16.494,0,0,0-12.5,5.923c-3.224-7.363-10.032-12.44-17.91-12.44a18.162,18.162,0,0,0-7.556,1.648c-1.455-7.809-7.693-13.679-15.168-13.679-7.44,0-13.653,5.816-15.145,13.569a14.678,14.678,0,0,0-9.5-3.543,14.307,14.307,0,0,0-5.338,1.032C274.323,407.949,270.413,403.846,265.637,403.846Z" transform="translate(67.849 -107.778)" fill="#fff" fill-rule="evenodd"/>
          <path id="Path_645" data-name="Path 645" d="M137.65,66.987c3.23,2.522,13.787,27.63,16.438,35.592h-9.872C142.831,91.469,140.9,78.818,137.65,66.987Z" transform="translate(186.601 -52.65)" fill="#ea926a" fill-rule="evenodd"/>
          <path id="Path_646" data-name="Path 646" d="M143.322,121.365s3.993,18.046,4.118,33.335c.062,7.646-2.611,47.849-8.362,52.51l-9.984-.376V167.107c13.071-3.013,15.163-27.653-.562-35.341l.187-11.154C133.633,120.613,138.415,121.052,143.322,121.365Z" transform="translate(200.835 -61.472)" fill="#fcfdff" fill-rule="evenodd"/>
          <path id="Path_647" data-name="Path 647" d="M144.584,165.183c5.368-.431,9.61-5.686,9.61-12.105s-4.242-11.673-9.61-12.1Z" transform="translate(180.726 -64.822)" fill="#3dc6fa" fill-rule="evenodd"/>
          <path id="Path_648" data-name="Path 648" d="M106.039,211.925l-1.092,4.668,17.285,9.744,4.4,12.438-2.4-14.148Z" transform="translate(241.267 -76.494)" fill="#e58044" fill-rule="evenodd"/>
          <g id="Group_641" data-name="Group 641" transform="translate(361.225 60.351)" opacity="0.42" style="mix-blend-mode: soft-light;isolation: isolate">
            <path id="Path_649" data-name="Path 649" d="M25.318,146.091a5.976,5.976,0,0,1,2.731.658,5.1,5.1,0,0,1,9.274-2.222,4.285,4.285,0,0,1,6.71-3.134c1.606-2.359,4.263-3.187,7.149-2.773A8.2,8.2,0,0,1,58.75,131.3a7.4,7.4,0,0,1,7.323-8.164,7.327,7.327,0,0,1,5.395,2.364,6.889,6.889,0,0,1,12.853,3.369A6.642,6.642,0,0,1,91.74,139.2a6.332,6.332,0,0,1,2.274,6.73,4.435,4.435,0,0,1,3.271,4.282H19.61A6.025,6.025,0,0,1,25.318,146.091Z" transform="translate(-19.61 -122.061)" fill="#eaf2fa"/>
          </g>
          <g id="Group_642" data-name="Group 642" transform="translate(156.642)" opacity="0.42" style="mix-blend-mode: soft-light;isolation: isolate">
            <path id="Path_650" data-name="Path 650" d="M240.5,79.418a2.945,2.945,0,0,1,2.733-2.105,2.666,2.666,0,0,1,1.079.231,2.914,2.914,0,0,1,2.645-1.869,2.642,2.642,0,0,1,.794.124c.055-.026.108-.048.162-.073a4.246,4.246,0,0,1-.047-.6,3.61,3.61,0,0,1,3.417-3.775,3.127,3.127,0,0,1,.921.143,5.728,5.728,0,0,1,5.263-3.877,5.262,5.262,0,0,1,2.795.812,9.157,9.157,0,0,1,6.569-2.344,6.829,6.829,0,0,1-.387-2.263c0-3.464,2.543-6.272,5.678-6.272a5.211,5.211,0,0,1,2.521.658c1.257-4.837,5.29-8.377,10.073-8.377a10.617,10.617,0,0,1,9.9,7.753,5.068,5.068,0,0,1,.588-.034,5.576,5.576,0,0,1,4.82,2.967,5.4,5.4,0,0,1,3.366-1.2,5.917,5.917,0,0,1,5.581,4.7,12.659,12.659,0,0,1,5.58,3.561,5.421,5.421,0,0,1,3.549-1.35,6,6,0,0,1,5.718,5.45,3.136,3.136,0,0,1,1.4-.335,3.475,3.475,0,0,1,3.258,2.638,2.67,2.67,0,0,1,1.16-.266,3.064,3.064,0,0,1,2.91,3.095l.165.043a5.813,5.813,0,0,1,1.254-.138,6.164,6.164,0,0,1,5.012,2.7Z" transform="translate(-240.5 -49.827)" fill="#eaf2fa"/>
          </g>
          <g id="Group_643" data-name="Group 643" transform="translate(67.121 157.75)" opacity="0.42" style="mix-blend-mode: soft-light;isolation: isolate">
            <path id="Path_651" data-name="Path 651" d="M329.034,267.407c0-2.331,6.136-7.021,12-4.562a9.689,9.689,0,0,1,7.376-3.047c.175,0,.348.005.52.013a9.58,9.58,0,0,1,.386-.935,9.13,9.13,0,0,1,13.094-3.861,6.9,6.9,0,0,1,6.341-2.547c.171.023.342.044.51.078a7.191,7.191,0,0,1,7.118-6.317,7.088,7.088,0,0,1,1.264.119c.141.025.279.055.415.089A9.753,9.753,0,0,1,395.745,243a9.149,9.149,0,0,1,12.4,7.737c.216-.013.432-.021.651-.021a10.7,10.7,0,0,1,10.483,8.663,9.481,9.481,0,0,1,2.335,1.114,11.094,11.094,0,0,1,3.923-.7c4.082,0,7.51,2.105,8.477,4.954,4.356.335,7.868,1.344,9.354,2.655Z" transform="translate(-329.034 -238.639)" fill="#eaf2fa"/>
          </g>
        </g>
      </g>
    </g>
  </g>
</svg>
