<svg id="Component_40_1" data-name="Component 40 – 1" xmlns="http://www.w3.org/2000/svg" xmlns:xlink="http://www.w3.org/1999/xlink" width="82" height="87" viewBox="0 0 82 87">
  <defs>
    <clipPath id="clip-path">
      <rect id="Rectangle_1609" data-name="Rectangle 1609" width="82" height="87" fill="none"/>
    </clipPath>
  </defs>
  <path id="Path_215" data-name="Path 215" d="M-35.674,68.69H-98.63a7.871,7.871,0,0,1-7.871-7.872V27.736l-3.936-3.357V64.755a7.871,7.871,0,0,0,7.872,7.872h62.957a7.873,7.873,0,0,0,7.174-4.633,7.844,7.844,0,0,1-3.239.7Zm0,0" transform="translate(111.928 11.754)" fill="#d4e1f4"/>
  <path id="Path_216" data-name="Path 216" d="M63.337,5.594l-7.79,6.339-2.92-3.42a1.378,1.378,0,1,0-2.1,1.789l3.794,4.442a1.377,1.377,0,0,0,1.917.174l8.834-7.188a1.378,1.378,0,1,0-1.74-2.137Zm0,0" transform="translate(-17.053 27.09)" fill="#a3d179"/>
  <g id="Group_205" data-name="Group 205">
    <g id="Group_204" data-name="Group 204" transform="translate(0 0)" clip-path="url(#clip-path)">
      <path id="Path_217" data-name="Path 217" d="M27.517-46.368A15.153,15.153,0,0,0,12.363-31.215,15.153,15.153,0,0,0,27.517-16.062,15.153,15.153,0,0,0,42.67-31.215a15.077,15.077,0,0,0-4.414-10.739,15.076,15.076,0,0,0-10.739-4.413Zm0,27.551a12.4,12.4,0,0,1-12.4-12.4,12.4,12.4,0,0,1,12.4-12.4,12.4,12.4,0,0,1,12.4,12.4,12.4,12.4,0,0,1-12.4,12.4Zm0,0" transform="translate(13.324 68.561)" fill="#a3d179"/>
      <path id="Path_218" data-name="Path 218" d="M-4.825-158.564l-.012-.009a1.37,1.37,0,0,0-1-.427,1.305,1.305,0,0,0-.155.01l-.024,0c-.047,0-.092-.006-.138-.006H-29.956a7.629,7.629,0,0,0-7.618,7.618v37.324l2.755,2.334v-39.658a4.869,4.869,0,0,1,4.863-4.863H-7.211V-147a7.626,7.626,0,0,0,7.619,7.618h9.25v27.646l2.755-2.336V-140.79a1.379,1.379,0,0,0-.4-.975ZM.408-142.133A4.867,4.867,0,0,1-4.455-147V-154.3l12.194,12.17Zm0,0" transform="translate(53.421 159)" fill="#a3d179"/>
    </g>
  </g>
  <path id="Path_219" data-name="Path 219" d="M-36.717-41.8l-15.03-12.725v3.609l12.236,10.361L-51.747-30.18-54.5-27.844-72.528-12.555a6.474,6.474,0,0,1-8.4,0L-98.978-27.836l-2.755-2.334-12.234-10.359,12.234-10.378v-3.615l-14.949,12.68a1.381,1.381,0,0,0-.8,1.248V2.139a9.26,9.26,0,0,0,9.249,9.249h62.975A9.259,9.259,0,0,0-36,2.139V-40.594a1.377,1.377,0,0,0-.714-1.208Zm-2.041,43.94a6.457,6.457,0,0,1-.77,3.068L-58.3-13.891a1.378,1.378,0,0,0-1.949-.017,1.379,1.379,0,0,0-.017,1.95L-41.328,7.308a6.45,6.45,0,0,1-3.924,1.325h-62.975a6.455,6.455,0,0,1-3.932-1.33l18.833-19.264a1.378,1.378,0,0,0-.048-1.92,1.378,1.378,0,0,0-1.921,0L-113.953,5.2a6.424,6.424,0,0,1-.768-3.058v-39.7l13.49,11.423,18.525,15.686a9.219,9.219,0,0,0,11.959,0l18.5-15.691,13.49-11.44Zm0,0" transform="translate(117.58 75.112)" fill="#39bfc5"/>
</svg>
