<svg id="Component_6_1" data-name="Component 6 – 1" xmlns="http://www.w3.org/2000/svg" width="16.966" height="20.575" viewBox="0 0 16.966 20.575">
  <path id="Path_33" data-name="Path 33" d="M50.785,154.248a.832.832,0,0,1-.832-.832V134.832a.832.832,0,1,1,1.664,0v18.584a.832.832,0,0,1-.832.832Zm0,0" transform="translate(-48.549 -133.837)" fill="#fff"/>
  <path id="Path_34" data-name="Path 34" d="M47.948,151.575a1,1,0,0,1-1-1V132a1,1,0,1,1,1.991,0V150.58a1,1,0,0,1-1,1Zm0-20.248a.67.67,0,0,0-.669.669V150.58a.669.669,0,0,0,1.338,0V132a.67.67,0,0,0-.669-.669Zm0,0" transform="translate(-45.712 -131)" fill="#fff"/>
  <g id="Group_29" data-name="Group 29" transform="translate(0.163 0.164)">
    <path id="Path_35" data-name="Path 35" d="M60.058,308.68a.163.163,0,0,1-.163-.163V307.46a.163.163,0,0,1,.327,0v1.056a.163.163,0,0,1-.163.163Zm0,0" transform="translate(-58.113 -297.865)" fill="#fff"/>
    <path id="Path_36" data-name="Path 36" d="M30.679,134.617a2.069,2.069,0,1,1-2.925,0,2.069,2.069,0,0,1,2.925,0Zm0,0" transform="translate(-27.148 -134.011)" fill="#fff"/>
  </g>
  <path id="Path_37" data-name="Path 37" d="M60.576,134a2.084,2.084,0,0,0-.264.017,2.068,2.068,0,0,1,0,4.1,2.124,2.124,0,0,0,.264.017,2.069,2.069,0,1,0,0-4.138Zm0,0" transform="translate(-58.344 -133.837)" fill="#fff"/>
  <path id="Path_38" data-name="Path 38" d="M280.457,154.248a.832.832,0,0,1-.832-.832V134.832a.832.832,0,1,1,1.664,0v18.584a.832.832,0,0,1-.832.832Zm0,0" transform="translate(-265.72 -133.837)" fill="#fff"/>
  <g id="Group_30" data-name="Group 30" transform="translate(12.661)">
    <path id="Path_39" data-name="Path 39" d="M277.62,151.575a1,1,0,0,1-1-1V132a1,1,0,1,1,1.991,0V150.58a1,1,0,0,1-1,1Zm0-20.248a.67.67,0,0,0-.669.669V150.58a.669.669,0,1,0,1.338,0V132a.67.67,0,0,0-.669-.669Zm0,0" transform="translate(-275.544 -131)" fill="#fff"/>
    <path id="Path_40" data-name="Path 40" d="M260.3,430.59a2.069,2.069,0,1,1-2.925,0,2.069,2.069,0,0,1,2.925,0Zm0,0" transform="translate(-256.765 -413.71)" fill="#fff"/>
  </g>
  <path id="Path_41" data-name="Path 41" d="M290.244,429.984a2.085,2.085,0,0,0-.264.017,2.068,2.068,0,0,1,0,4.1,2.131,2.131,0,0,0,.264.017,2.069,2.069,0,1,0,0-4.138Zm0,0" transform="translate(-275.511 -413.71)" fill="#fff"/>
  <path id="Path_42" data-name="Path 42" d="M258.893,434.118a2.084,2.084,0,0,0,.264-.017,2.068,2.068,0,0,1,0-4.1,2.069,2.069,0,1,0-.264,4.12Zm0,0" transform="translate(-244.16 -413.706)" fill="#fff"/>
  <path id="Path_43" data-name="Path 43" d="M165.621,154.248a.832.832,0,0,1-.832-.832V134.832a.832.832,0,1,1,1.664,0v18.584a.832.832,0,0,1-.832.832Zm0,0" transform="translate(-157.134 -133.837)" fill="#fff"/>
  <path id="Path_44" data-name="Path 44" d="M162.784,151.575a1,1,0,0,1-1-1V132a1,1,0,1,1,1.991,0V150.58a1,1,0,0,1-1,1Zm0-20.248a.67.67,0,0,0-.669.669V150.58a.669.669,0,0,0,1.338,0V132a.67.67,0,0,0-.669-.669Zm0,0" transform="translate(-154.297 -131)" fill="#fff"/>
  <path id="Path_45" data-name="Path 45" d="M146.13,281.635a2.069,2.069,0,1,1-2.069-2.069,2.069,2.069,0,0,1,2.069,2.069Zm0,0" transform="translate(-135.578 -271.479)" fill="#fff"/>
  <path id="Path_46" data-name="Path 46" d="M256.06,431.448a2.232,2.232,0,1,1,2.232-2.232,2.235,2.235,0,0,1-2.232,2.232Zm0-4.138a1.906,1.906,0,1,0,1.906,1.906,1.908,1.908,0,0,0-1.906-1.906Zm0,0" transform="translate(-241.327 -410.873)" fill="#fff"/>
  <path id="Path_47" data-name="Path 47" d="M175.412,279.566a2.039,2.039,0,0,0-.264.017,2.068,2.068,0,0,1,0,4.1,2.069,2.069,0,1,0,.264-4.12Zm0,0" transform="translate(-166.929 -271.479)" fill="#fff"/>
  <path id="Path_48" data-name="Path 48" d="M144.061,283.7a2.044,2.044,0,0,0,.264-.017,2.068,2.068,0,0,1,0-4.1,2.069,2.069,0,1,0-.264,4.12Zm0,0" transform="translate(-135.578 -271.479)" fill="#fff"/>
  <path id="Path_49" data-name="Path 49" d="M29.225,138.138a2.083,2.083,0,0,0,.264-.017,2.068,2.068,0,0,1,0-4.1,2.069,2.069,0,1,0-.264,4.12Zm0,0" transform="translate(-26.993 -133.837)" fill="#fff"/>
  <path id="Path_50" data-name="Path 50" d="M141.224,281.03a2.232,2.232,0,1,1,2.232-2.232,2.235,2.235,0,0,1-2.232,2.232Zm0-4.138a1.906,1.906,0,1,0,1.906,1.906,1.908,1.908,0,0,0-1.906-1.906Zm0,0" transform="translate(-132.741 -268.643)" fill="#fff"/>
  <path id="Path_51" data-name="Path 51" d="M26.388,135.464a2.232,2.232,0,1,1,2.232-2.232,2.235,2.235,0,0,1-2.232,2.232Zm0-4.138a1.906,1.906,0,1,0,1.906,1.906,1.908,1.908,0,0,0-1.906-1.906Zm0,0" transform="translate(-24.156 -131)" fill="#fff"/>
</svg>
