<svg xmlns="http://www.w3.org/2000/svg" width="17.937" height="21.5" viewBox="0 0 17.937 21.5">
  <g id="Group_160" data-name="Group 160" transform="translate(-9 -115)">
    <path id="Path_3" data-name="Path 3" d="M83.8,125.357a5.18,5.18,0,1,0-3.661-1.517,5.01,5.01,0,0,0,3.661,1.517Zm0,0" transform="translate(-65.97)" fill="#45afe1"/>
    <path id="Path_4" data-name="Path 4" d="M26.894,319a12.8,12.8,0,0,0-.174-1.358,10.693,10.693,0,0,0-.334-1.366A6.759,6.759,0,0,0,25.824,315a4.8,4.8,0,0,0-.847-1.1,3.734,3.734,0,0,0-1.216-.764,4.2,4.2,0,0,0-1.553-.281,1.575,1.575,0,0,0-.842.357c-.252.164-.547.355-.877.565a5.023,5.023,0,0,1-1.134.5,4.4,4.4,0,0,1-2.775,0,5.009,5.009,0,0,1-1.134-.5c-.326-.209-.621-.4-.878-.566a1.575,1.575,0,0,0-.841-.357,4.2,4.2,0,0,0-1.553.281,3.729,3.729,0,0,0-1.217.764,4.8,4.8,0,0,0-.846,1.1,6.763,6.763,0,0,0-.561,1.274,10.68,10.68,0,0,0-.334,1.366A12.754,12.754,0,0,0,9.043,319c-.029.411-.043.838-.043,1.27a3.571,3.571,0,0,0,1.06,2.7,3.818,3.818,0,0,0,2.732,1H23.145a3.817,3.817,0,0,0,2.732-1,3.569,3.569,0,0,0,1.06-2.7c0-.433-.015-.861-.043-1.27Zm0,0" transform="translate(0 -187.467)" fill="#45afe1"/>
  </g>
</svg>
