<svg id="history" xmlns="http://www.w3.org/2000/svg" width="25.6" height="25.6" viewBox="0 0 25.6 25.6">
  <path id="Path_872" data-name="Path 872" d="M13.8,6.9v5.486l3.64,3.64a1,1,0,0,1-1.414,1.414l-3.933-3.933A1,1,0,0,1,11.8,12.8V6.9a1,1,0,0,1,2,0ZM16.733,0H8.867A8.836,8.836,0,0,0,3.052,2.174V1a1,1,0,1,0-2,0V4.933a1,1,0,0,0,1,1H5.986a1,1,0,0,0,0-2H4.094A6.89,6.89,0,0,1,8.867,2h7.867A6.874,6.874,0,0,1,23.6,8.867v7.867A6.874,6.874,0,0,1,16.733,23.6H8.867A6.874,6.874,0,0,1,2,16.733V12.8a1,1,0,0,0-2,0v3.933A8.877,8.877,0,0,0,8.867,25.6h7.867A8.877,8.877,0,0,0,25.6,16.733V8.867A8.877,8.877,0,0,0,16.733,0Z" fill="#45afe1"/>
</svg>
