<svg id="pricetag-discount" xmlns="http://www.w3.org/2000/svg" width="25.836" height="27.845" viewBox="0 0 25.836 27.845">
  <path id="Path_530" data-name="Path 530" d="M30.14,10.769,20.39,3.535a2.793,2.793,0,0,0-3.446,0L7.189,10.769A3.1,3.1,0,0,0,6,13.206V27.83a2.925,2.925,0,0,0,2.925,2.925H27.936c1.579,0,3.412-1.277,3.412-2.925V13.206A3.105,3.105,0,0,0,30.14,10.769Z" transform="translate(-6 -2.911)" fill="#ff343b"/>
  <path id="Path_531" data-name="Path 531" d="M44.674,13.176V27.8c0,1.648-1.833,2.925-3.412,2.925H32V2.88a2.793,2.793,0,0,1,1.731.6l9.735,7.259a3.105,3.105,0,0,1,1.209,2.437Z" transform="translate(-19.326 -2.88)" fill="#a8181d"/>
  <circle id="Ellipse_17" data-name="Ellipse 17" cx="1.95" cy="1.95" r="1.95" transform="translate(10.725 2.983)" fill="#555"/>
  <path id="Path_532" data-name="Path 532" d="M31.371,25.634,25.336,31.4l-4.69,4.475a.972.972,0,1,1-1.345-1.4L25.336,28.7l4.69-4.475a.975.975,0,1,1,1.345,1.409Z" transform="translate(-12.661 -13.666)" fill="#fff"/>
  <path id="Path_533" data-name="Path 533" d="M23.337,25.164a3.169,3.169,0,1,0-3.169,3.173A3.169,3.169,0,0,0,23.337,25.164Zm-4.387,0a1.219,1.219,0,1,1,.355.865,1.219,1.219,0,0,1-.355-.865Z" transform="translate(-11.638 -12.679)" fill="#fff"/>
  <path id="Path_534" data-name="Path 534" d="M37.169,38a3.169,3.169,0,1,0,3.169,3.169A3.169,3.169,0,0,0,37.169,38Zm0,4.387a1.219,1.219,0,1,1,1.219-1.219A1.219,1.219,0,0,1,37.169,42.387Z" transform="translate(-20.351 -20.88)" fill="#fff200"/>
  <rect id="Rectangle_1722" data-name="Rectangle 1722" width="14.137" height="1.95" rx="0.975" transform="translate(11.699 3.958)" fill="#d2d2d2"/>
  <path id="Path_535" data-name="Path 535" d="M38.069,24.291a.975.975,0,0,0-1.38-.034L32,28.732v2.7l6.035-5.762A.975.975,0,0,0,38.069,24.291Z" transform="translate(-19.326 -13.698)" fill="#d2d2d2"/>
  <path id="Path_536" data-name="Path 536" d="M37.169,38a3.169,3.169,0,1,0,3.169,3.169A3.169,3.169,0,0,0,37.169,38Zm0,4.387a1.219,1.219,0,1,1,1.219-1.219A1.219,1.219,0,0,1,37.169,42.387Z" transform="translate(-20.351 -20.88)" fill="#d2d2d2"/>
</svg>
