<svg xmlns="http://www.w3.org/2000/svg" width="23.03" height="23.031" viewBox="0 0 23.03 23.031">
  <path id="Path_73" d="M.523,14.664l2.471-2.471a1.75,1.75,0,0,1,2.471,0l1.123,1.123a1.326,1.326,0,0,0,1.872,0l4.869-4.873a1.323,1.323,0,0,0,0-1.872L12.207,5.447a1.747,1.747,0,0,1,0-2.472L14.679.512a1.749,1.749,0,0,1,2.47,0l.9.893a6.309,6.309,0,0,1,0,8.912l-7.715,7.719a6.3,6.3,0,0,1-8.912,0l-.9-.9A1.749,1.749,0,0,1,.523,14.664Zm3.3-1.648L1.346,15.488a.583.583,0,0,0,0,.824l.412.412,3.3-3.3-.412-.412A.583.583,0,0,0,3.818,13.016ZM15.5,1.336,13.031,3.8a.582.582,0,0,0,0,.824l.412.412,3.293-3.293-.41-.406A.583.583,0,0,0,15.5,1.336ZM9.51,17.21l7.715-7.719a5.122,5.122,0,0,0,.321-6.912L14.263,5.863a2.487,2.487,0,0,1-.108,3.4L9.285,14.139h0a2.486,2.486,0,0,1-3.4.108L2.6,17.532A5.112,5.112,0,0,0,9.51,17.21Z" transform="matrix(0.985, -0.174, 0.174, 0.985, -0.011, 3.454)" fill="#fff"/>
</svg>
