<svg id="iconfinder_General_Office_32_3592856" xmlns="http://www.w3.org/2000/svg" width="34.389" height="28.197" viewBox="0 0 34.389 28.197">
  <g id="Group_632" data-name="Group 632">
    <path id="Path_577" data-name="Path 577" d="M6.335,24.634a3.192,3.192,0,1,0-3.19-3.192A3.2,3.2,0,0,0,6.335,24.634Z" transform="translate(-2.159 -15.124)" fill="#45afe1"/>
    <path id="Path_578" data-name="Path 578" d="M36.465,21.113a5.526,5.526,0,1,0-5.524-5.527A5.533,5.533,0,0,0,36.465,21.113Z" transform="translate(-19.343 -10.061)" fill="#3396c1"/>
    <path id="Path_579" data-name="Path 579" d="M38.756,40.481a7.641,7.641,0,0,1-9.334.034,4.182,4.182,0,0,0-2.363,3.8V54.668a13.649,13.649,0,0,0,7.007,2.4,10.613,10.613,0,0,0,7.114-2.291V44.315A4.279,4.279,0,0,0,38.756,40.481Z" transform="translate(-16.943 -28.868)" fill="#3396c1"/>
    <path id="Path_580" data-name="Path 580" d="M8.911,36.437a5.6,5.6,0,0,1-7.3.915A2.181,2.181,0,0,0,.561,39.3v6.264c1.755,1.371,5.908,1.816,8.89-.053V41.23a7.063,7.063,0,0,1,.716-3.135A4.219,4.219,0,0,0,8.911,36.437Z" transform="translate(-0.561 -26.368)" fill="#45afe1"/>
    <path id="Path_581" data-name="Path 581" d="M74.53,24.634a3.192,3.192,0,1,1,3.19-3.192A3.2,3.2,0,0,1,74.53,24.634Z" transform="translate(-44.317 -15.124)" fill="#45afe1"/>
    <path id="Path_582" data-name="Path 582" d="M66.738,36.437a5.6,5.6,0,0,0,7.3.915,2.181,2.181,0,0,1,1.05,1.945v6.264c-1.754,1.371-5.907,1.816-8.889-.053V41.23a7.063,7.063,0,0,0-.716-3.135A4.216,4.216,0,0,1,66.738,36.437Z" transform="translate(-40.699 -26.368)" fill="#45afe1"/>
  </g>
</svg>
