<svg xmlns="http://www.w3.org/2000/svg" width="22.296" height="17.98" viewBox="0 0 22.296 17.98">
  <path id="icon2" d="M648.447,20.423c.019-.192.029-.388.029-.584a5.826,5.826,0,0,0-11.148-2.389,5.825,5.825,0,0,0-11.148,2.389c0,.2.01.392.028.584,0,0,.114,5.757,11.191,11.549h0C648.475,26.18,648.447,20.423,648.447,20.423Zm-16.273-5.144a.959.959,0,1,1-.955.96A.958.958,0,0,1,632.174,15.279Zm-2.989,7.178a.983.983,0,0,1-.268.037,1,1,0,0,1-.961-.733,6.45,6.45,0,0,1-.24-1.478,4.384,4.384,0,0,1,1.435-3.584,1,1,0,0,1,1.237,1.571,2.4,2.4,0,0,0-.677,1.826,4.343,4.343,0,0,0,.166,1.127A1,1,0,0,1,629.184,22.457Z" transform="translate(-626.18 -13.991)" fill="#555"/>
</svg>
