<svg id="return" xmlns="http://www.w3.org/2000/svg" width="31" height="26.359" viewBox="0 0 31 26.359">
  <g id="Group_590" data-name="Group 590">
    <path id="Path_520" data-name="Path 520" d="M34.338,9H6.6A1.64,1.64,0,0,0,5,10.6v3.61a1.652,1.652,0,0,0,1.6,1.662h.688V33.7a1.663,1.663,0,0,0,1.662,1.662H32.046A1.663,1.663,0,0,0,33.708,33.7V15.876H34.4a1.6,1.6,0,0,0,1.6-1.6v-3.61A1.742,1.742,0,0,0,34.338,9ZM32.5,33.7a.514.514,0,0,1-.516.516H8.954a.514.514,0,0,1-.516-.516V15.876H32.5ZM34.8,14.272a.452.452,0,0,1-.458.458H6.6a.493.493,0,0,1-.458-.458v-3.61a.505.505,0,0,1,.458-.516H34.281a.452.452,0,0,1,.458.458v3.667Z" transform="translate(-5 -9)" fill="#45afe1"/>
    <path id="Path_521" data-name="Path 521" d="M20.516,29.693l3.954,2.521a1.163,1.163,0,0,0,1.146.057,1.257,1.257,0,0,0,.63-1.031V30.5h2.521a1.743,1.743,0,0,1,1.662,1.834,1.78,1.78,0,0,1-1.662,1.834H25.444a1.78,1.78,0,0,0,0,3.553h3.323a5.337,5.337,0,0,0,0-10.658H26.246V26.14a1.082,1.082,0,0,0-.63-1.031,1.171,1.171,0,0,0-1.146.057l-3.954,2.521a1.126,1.126,0,0,0-.516.974A1.225,1.225,0,0,0,20.516,29.693Zm.63-1.031,3.9-2.521v1.318a.541.541,0,0,0,.573.573H28.71a4.224,4.224,0,0,1,0,8.423H25.386a.643.643,0,0,1,0-1.261H28.71a2.985,2.985,0,0,0,0-5.959H25.616a.541.541,0,0,0-.573.573l.057,1.375-3.954-2.464Z" transform="translate(-11.405 -15.826)" fill="#45afe1"/>
  </g>
</svg>
