<svg id="iconfinder_nn_2318443" xmlns="http://www.w3.org/2000/svg" width="33.525" height="23.054" viewBox="0 0 33.525 23.054">
  <g id="Group_583" data-name="Group 583" transform="translate(19.908 4.194)">
    <path id="Path_515" data-name="Path 515" d="M304.717,170.414H300.53v-2.1h2.09V162.2l-1.8-5.4H293.19v11.519h1.049v2.1H291.1V154.7h11.229l2.388,7.164Z" transform="translate(-291.1 -154.7)" fill="#45afe1"/>
  </g>
  <g id="Group_584" data-name="Group 584" transform="translate(21.998 14.665)">
    <path id="Path_516" data-name="Path 516" d="M322.594,299.889a4.194,4.194,0,1,1,4.194-4.194A4.2,4.2,0,0,1,322.594,299.889Zm0-6.292a2.1,2.1,0,1,0,2.1,2.1A2.1,2.1,0,0,0,322.594,293.6Z" transform="translate(-318.4 -291.5)" fill="#45afe1"/>
  </g>
  <g id="Group_585" data-name="Group 585" transform="translate(2.097 12.576)">
    <path id="Path_517" data-name="Path 517" d="M62.587,271.533H58.4V264.2h2.09v5.235h2.1Z" transform="translate(-58.4 -264.2)" fill="#45afe1"/>
  </g>
  <g id="Group_586" data-name="Group 586">
    <path id="Path_518" data-name="Path 518" d="M53,119.808h-9.43v-2.1h7.34V102H31V99.9H53Z" transform="translate(-31 -99.9)" fill="#45afe1"/>
  </g>
  <g id="Group_587" data-name="Group 587" transform="translate(5.235 14.665)">
    <path id="Path_519" data-name="Path 519" d="M103.594,299.889a4.194,4.194,0,1,1,4.194-4.194A4.2,4.2,0,0,1,103.594,299.889Zm0-6.292a2.1,2.1,0,1,0,2.1,2.1A2.1,2.1,0,0,0,103.594,293.6Z" transform="translate(-99.4 -291.5)" fill="#45afe1"/>
  </g>
  <g id="Group_588" data-name="Group 588" transform="translate(1.049 4.194)">
    <rect id="Rectangle_1717" data-name="Rectangle 1717" width="9.43" height="2.097" transform="translate(0)" fill="#45afe1"/>
  </g>
  <g id="Group_589" data-name="Group 589" transform="translate(2.097 8.381)">
    <rect id="Rectangle_1718" data-name="Rectangle 1718" width="6.284" height="2.097" transform="translate(0)" fill="#45afe1"/>
  </g>
</svg>
