<svg id="Special_Price" data-name="Special Price" xmlns="http://www.w3.org/2000/svg" width="19.574" height="19.57" viewBox="0 0 19.574 19.57">
  <path id="Path_552" data-name="Path 552" d="M21.1,11.989a.284.284,0,0,0-.074-.108l-.859-.865h0L11.517,2.388a.325.325,0,0,0-.325-.088L4.282,4.024a.358.358,0,0,0-.25.25L3.687,5.667a1.156,1.156,0,0,1-.25-.331,1.934,1.934,0,0,1-.122-1.4c.135-.73.284-1.562-1.3-2.387a.338.338,0,0,0-.311.595c1.143.6,1.068,1,.953,1.67a2.63,2.63,0,0,0,.183,1.839,1.832,1.832,0,0,0,.676.737l-1.2,4.794a.325.325,0,0,0,.088.325l8.641,8.648h0l.865.859a.284.284,0,0,0,.108.074.291.291,0,0,0,.128,0,.277.277,0,0,0,.128,0,.3.3,0,0,0,.115-.074l8.641-8.641a.3.3,0,0,0,.074-.115.338.338,0,0,0,0-.27ZM4.134,6.654a2.508,2.508,0,0,0,.595.068,1.913,1.913,0,0,0,.277,0,1.244,1.244,0,1,0-.162-.683A1.812,1.812,0,0,1,4.3,5.992l.338-1.352L11.172,3l8.262,8.276L11.28,19.426,3,11.164Zm2.2-.811-.325-.325h.081a.581.581,0,0,1,.412.987.588.588,0,0,1-.723.074,2.921,2.921,0,0,0,.453-.162.338.338,0,0,0,.1-.548ZM12.139,20.3l-.385-.385,8.168-8.168.385.385Z" transform="translate(-1.552 -1.527)" fill="#555"/>
  <path id="Path_553" data-name="Path 553" d="M14.986,16.576h.095a.338.338,0,0,0,.23-.419l-1.9-6.741a.35.35,0,0,0-.676.183l1.907,6.761A.331.331,0,0,0,14.986,16.576Z" transform="translate(-5.17 -3.998)" fill="#555"/>
  <path id="Path_554" data-name="Path 554" d="M9.55,13.516a1.562,1.562,0,1,0,2.2,0A1.582,1.582,0,0,0,9.55,13.516Zm1.731,1.724a.886.886,0,1,1-.629-1.508.882.882,0,0,1,.629,1.508Z" transform="translate(-3.994 -5.265)" fill="#555"/>
  <path id="Path_555" data-name="Path 555" d="M17.165,14.764a1.5,1.5,0,1,0-1.1-.426,1.562,1.562,0,0,0,1.1.426Zm-.615-2.2a.886.886,0,0,1,.622-.257.892.892,0,1,1-.622,1.528.852.852,0,0,1-.257-.622A.879.879,0,0,1,16.55,12.56Z" transform="translate(-6.105 -4.802)" fill="#555"/>
</svg>
