<svg xmlns="http://www.w3.org/2000/svg" width="30" height="24" viewBox="0 0 30 24">
  <g id="dollar_x2C__currency_x2C__money" transform="translate(-1 -4)">
    <g id="purse_1_">
      <g id="Group_55" data-name="Group 55">
        <g id="Group_54" data-name="Group 54">
          <path id="Path_256" data-name="Path 256" d="M1.5,9a.5.5,0,0,1,0-1C15.884,8,24.566,8,27.084,4.223A.5.5,0,0,1,28,4.5V7a.5.5,0,0,1-1,0V5.826C23.441,9,14.882,9,1.5,9Z" fill="#fff"/>
        </g>
      </g>
      <g id="Group_58" data-name="Group 58">
        <g id="Group_57" data-name="Group 57">
          <g id="Group_56" data-name="Group 56">
            <path id="Path_257" data-name="Path 257" d="M13.979,11.058c-1.78,0-3.686-.014-5.713-.027C6.113,11.016,3.851,11,1.5,11a.5.5,0,0,1,0-1c2.354,0,4.618.016,6.772.03,10.592.069,18.957.13,20.865-1.875A.5.5,0,0,1,30,8.5v2a.5.5,0,0,1-1,0V9.492C26.592,10.83,21.389,11.058,13.979,11.058Z" fill="#fff"/>
          </g>
        </g>
      </g>
    </g>
    <g id="Group_76" data-name="Group 76">
      <g id="Group_73" data-name="Group 73">
        <g id="Group_72" data-name="Group 72">
          <path id="Path_261" data-name="Path 261" d="M1.5,12a.5.5,0,0,0,0,1H30V27H1.5a.5.5,0,0,0-.5.5H1a.5.5,0,0,0,.5.5h29a.5.5,0,0,0,.5-.5v-15a.5.5,0,0,0-.5-.5Z" fill="#fff"/>
        </g>
      </g>
      <g id="Group_75" data-name="Group 75">
        <g id="Group_74" data-name="Group 74">
          <path id="Path_262" data-name="Path 262" d="M1,14.5v13a.5.5,0,0,0,.5.5h0a.5.5,0,0,0,.5-.5v-13a.5.5,0,0,0-1,0Z" fill="#fff"/>
        </g>
      </g>
    </g>
    <g id="Group_81" data-name="Group 81">
      <g id="Group_78" data-name="Group 78">
        <g id="Group_77" data-name="Group 77">
          <path id="Path_263" data-name="Path 263" d="M12.5,26H5.449a.5.5,0,0,1-.493-.417,2.49,2.49,0,0,0-1.624-1.929A.5.5,0,0,1,3,23.184V16.817a.5.5,0,0,1,.332-.471,2.488,2.488,0,0,0,1.624-1.929A.5.5,0,0,1,5.449,14H12.5a.5.5,0,0,1,0,1H5.846A3.49,3.49,0,0,1,4,17.149v5.7A3.5,3.5,0,0,1,5.846,25H12.5a.5.5,0,0,1,0,1Z" fill="#fff"/>
        </g>
      </g>
      <g id="Group_80" data-name="Group 80">
        <g id="Group_79" data-name="Group 79">
          <path id="Path_264" data-name="Path 264" d="M19.5,26h7.051a.5.5,0,0,0,.493-.417,2.49,2.49,0,0,1,1.624-1.929.5.5,0,0,0,.332-.47V16.817a.5.5,0,0,0-.332-.471,2.488,2.488,0,0,1-1.624-1.929A.5.5,0,0,0,26.551,14H19.5a.5.5,0,0,0,0,1h6.654A3.487,3.487,0,0,0,28,17.149v5.7A3.5,3.5,0,0,0,26.154,25H19.5a.5.5,0,0,0,0,1Z" fill="#fff"/>
        </g>
      </g>
    </g>
  </g>
</svg>
