<svg xmlns="http://www.w3.org/2000/svg" width="24.7" height="24.7" viewBox="0 0 24.7 24.7">
  <g id="Fill" transform="translate(-2 -2)">
    <path id="Path_251"  d="M14.35,2A12.35,12.35,0,1,0,26.7,14.35,12.35,12.35,0,0,0,14.35,2Zm0,22.936A10.586,10.586,0,1,1,24.936,14.35,10.586,10.586,0,0,1,14.35,24.936Z" transform="translate(0 0)" fill="#fff"/>
    <path id="Path_252"  d="M17.175,7H13.646A2.646,2.646,0,0,0,11,9.646v1.764h1.764V9.646a.882.882,0,0,1,.882-.882h3.529a.882.882,0,0,1,.882.882v1.032a.882.882,0,0,1-.256.626l-2.5,2.5a2.646,2.646,0,0,0-.776,1.87v2.8h1.764v-2.8a.882.882,0,0,1,.256-.626l2.5-2.5a2.646,2.646,0,0,0,.776-1.87V9.646A2.646,2.646,0,0,0,17.175,7Z" transform="translate(-1.061 -0.589)" fill="#fff"/>
    <circle id="Ellipse_1"  cx="1.5" cy="1.5" r="1.5" transform="translate(13 20)" fill="#fff"/>
  </g>
</svg>
