<svg xmlns="http://www.w3.org/2000/svg" width="26.35" height="21.949" viewBox="0 0 26.35 21.949">
  <g id="iconfinder_m-17_4230547" transform="translate(-2.191 -23.155)">
    <path id="Path_253"  d="M98.776,23.254a9.373,9.373,0,0,0-7.929,2.619.506.506,0,0,0,0,.733.515.515,0,0,0,.733,0,8.3,8.3,0,0,1,14.151,6.159c-.01.325-.031,5.646-.052,10.8v.429l-5.185-3.771-.262.094a8.289,8.289,0,0,1-9.7-3.216.521.521,0,0,0-.869.576,9.35,9.35,0,0,0,10.653,3.708l4.871,3.54a1,1,0,0,0,.566.178.938.938,0,0,0,.44-.1.953.953,0,0,0,.524-.848v-.576c.01-3.121.042-10.422.052-10.778A9.338,9.338,0,0,0,98.776,23.254Z" transform="translate(-78.233)" fill="#fff"/>
    <path id="Path_254"  d="M41.286,212.7a.8.8,0,0,0,0,1.592.8.8,0,1,0,0-1.592Z" transform="translate(-34.297 -169.691)" fill="#fff"/>
    <path id="Path_255"  d="M12.467,56.376A5.508,5.508,0,0,0,7.555,53.6a5.66,5.66,0,0,0-5.321,3.561.519.519,0,1,0,.953.409,4.645,4.645,0,0,1,4.357-2.933,4.431,4.431,0,0,1,3.98,2.21A3.716,3.716,0,0,1,11,60.911,9.288,9.288,0,0,1,8.9,62.87a5.11,5.11,0,0,0-1.833,1.885,8.221,8.221,0,0,0-.513,3.31.523.523,0,0,0,.513.524h0a.53.53,0,0,0,.524-.513,7.356,7.356,0,0,1,.429-2.891,4.385,4.385,0,0,1,1.508-1.477,10.217,10.217,0,0,0,2.325-2.168A4.76,4.76,0,0,0,12.467,56.376Z" transform="translate(0 -27.256)" fill="#fff"/>
  </g>
</svg>
