<svg xmlns="http://www.w3.org/2000/svg" width="16" height="16" viewBox="0 0 16 16">
  <g id="iconfinder_qr_code_2639895" transform="translate(-4 -4)">
    <path id="Path_248"  d="M8.237,4H5.412A1.412,1.412,0,0,0,4,5.412V8.237A1.412,1.412,0,0,0,5.412,9.649H8.237A1.412,1.412,0,0,0,9.649,8.237V5.412A1.412,1.412,0,0,0,8.237,4Zm0,4.237H5.412V5.412H8.237ZM7.53,7.53H6.118V6.118H7.53Z" fill="#fff"/>
    <path id="Path_249"  d="M8.237,18H5.412A1.412,1.412,0,0,0,4,19.412v2.824a1.412,1.412,0,0,0,1.412,1.412H8.237a1.412,1.412,0,0,0,1.412-1.412V19.412A1.412,1.412,0,0,0,8.237,18Zm0,4.237H5.412V19.412H8.237ZM7.53,21.53H6.118V20.118H7.53Z" transform="translate(0 -4.115)" fill="#fff"/>
    <path id="Path_250" d="M22.237,4H19.412A1.412,1.412,0,0,0,18,5.412V8.237a1.412,1.412,0,0,0,1.412,1.412h2.824a1.412,1.412,0,0,0,1.412-1.412V5.412A1.412,1.412,0,0,0,22.237,4Zm0,4.237H19.412V5.412h2.824ZM21.53,7.53H20.118V6.118H21.53Z" transform="translate(-4.115)" fill="#fff"/>
    <rect id="Rectangle_1618"  width="1" height="2" transform="translate(11 5)" fill="#fff"/>
    <rect id="Rectangle_1619"  width="1" height="2" transform="translate(11 8)" fill="#fff"/>
    <rect id="Rectangle_1620"  width="1" height="1" transform="translate(11 11)" fill="#fff"/>
    <rect id="Rectangle_1621"  width="2" height="1" transform="translate(8 11)" fill="#fff"/>
    <rect id="Rectangle_1622"  width="2" height="1" transform="translate(5 11)" fill="#fff"/>
    <rect id="Rectangle_1623"  width="1" height="1" transform="translate(14 11)" fill="#fff"/>
    <rect id="Rectangle_1624"  width="1" height="1" transform="translate(17 11)" fill="#fff"/>
    <rect id="Rectangle_1625"  width="2" height="2" transform="translate(12 12)" fill="#fff"/>
    <rect id="Rectangle_1626"  width="2" height="2" transform="translate(15 12)" fill="#fff"/>
    <rect id="Rectangle_1627"  width="1" height="1" transform="translate(14 14)" fill="#fff"/>
    <rect id="Rectangle_1628"  width="1" height="1" transform="translate(11 14)" fill="#fff"/>
    <rect id="Rectangle_1629"  width="2" height="2" transform="translate(12 15)" fill="#fff"/>
    <rect id="Rectangle_1630"  width="1" height="1" transform="translate(14 17)" fill="#fff"/>
    <rect id="Rectangle_1631"  width="2" height="2" transform="translate(12 18)" fill="#fff"/>
    <rect id="Rectangle_1632" width="2" height="2" transform="translate(18 12)" fill="#fff"/>
    <rect id="Rectangle_1633"  width="2" height="2" transform="translate(18 15)" fill="#fff"/>
    <rect id="Rectangle_1634"  width="2" height="2" transform="translate(15 15)" fill="#fff"/>
    <rect id="Rectangle_1635"  width="2" height="2" transform="translate(15 18)" fill="#fff"/>
    <rect id="Rectangle_1636"  width="1" height="1" transform="translate(17 17)" fill="#fff"/>
    <rect id="Rectangle_1637"  width="1" height="1" transform="translate(17 14)" fill="#fff"/>
    <rect id="Rectangle_1638"  width="1" height="1" transform="translate(11 17)" fill="#fff"/>
  </g>
</svg>
