<svg id="Component_10_1" data-name="Component 10 – 1" xmlns="http://www.w3.org/2000/svg" width="26.262" height="20.004" viewBox="0 0 26.262 20.004">
  <path id="Path_6" data-name="Path 6" d="M137.8,61h-15.49a2.308,2.308,0,1,0,0,4.616H137.8a2.308,2.308,0,0,0,0-4.616Z" transform="translate(-113.845 -61)" fill="#fff"/>
  <path id="Path_7" data-name="Path 7" d="M137.8,211h-15.49a2.308,2.308,0,1,0,0,4.616H137.8a2.308,2.308,0,0,0,0-4.616Z" transform="translate(-113.845 -203.306)" fill="#fff"/>
  <path id="Path_8" data-name="Path 8" d="M137.8,361h-15.49a2.308,2.308,0,1,0,0,4.616H137.8a2.308,2.308,0,1,0,0-4.616Z" transform="translate(-113.845 -345.612)" fill="#fff"/>
  <path id="Path_9" data-name="Path 9" d="M2.308,61a2.308,2.308,0,1,0,2.308,2.308A2.311,2.311,0,0,0,2.308,61Z" transform="translate(0 -61)" fill="#fff"/>
  <path id="Path_10" data-name="Path 10" d="M2.308,211a2.308,2.308,0,1,0,2.308,2.308A2.311,2.311,0,0,0,2.308,211Z" transform="translate(0 -203.306)" fill="#fff"/>
  <path id="Path_11" data-name="Path 11" d="M2.308,361a2.308,2.308,0,1,0,2.308,2.308A2.311,2.311,0,0,0,2.308,361Z" transform="translate(0 -345.612)" fill="#fff"/>
</svg>
