<svg xmlns="http://www.w3.org/2000/svg" width="21.415" height="21.593" viewBox="0 0 21.415 21.593">
  <g id="iconfinder_TaskStroke_1737368" transform="translate(-60.297 -58.67)">
    <path id="Path_270"  d="M63.749,76.905h.946v.19a3.323,3.323,0,0,0,3.452,3.168H78.26A3.323,3.323,0,0,0,81.712,77.1V65.2a3.323,3.323,0,0,0-3.453-3.168h-.946v-.19a3.323,3.323,0,0,0-3.452-3.168H63.749A3.323,3.323,0,0,0,60.3,61.838v11.9A3.323,3.323,0,0,0,63.749,76.905ZM78.26,63.065A2.233,2.233,0,0,1,80.582,65.2V77.1a2.233,2.233,0,0,1-2.322,2.131H68.147A2.233,2.233,0,0,1,65.825,77.1V65.2a2.233,2.233,0,0,1,2.322-2.131H78.26ZM61.427,61.838a2.233,2.233,0,0,1,2.322-2.131H73.862a2.233,2.233,0,0,1,2.322,2.131v.19H68.147A3.323,3.323,0,0,0,64.695,65.2V75.868h-.946a2.233,2.233,0,0,1-2.322-2.131Z" fill="#fff"/>
    <path id="Path_271"  d="M188.947,198.035a.449.449,0,0,0,0,.9h8.986a.449.449,0,1,0,0-.9Z" transform="translate(-121.187 -131.74)" fill="#fff"/>
    <path id="Path_272"  d="M222.655,254.265a.45.45,0,0,0,.45.449h8.42a.45.45,0,1,0,0-.9H223.1A.45.45,0,0,0,222.655,254.265Z" transform="translate(-153.475 -184.468)" fill="#fff"/>
    <path id="Path_273"  d="M197.288,310.054a.449.449,0,0,0-.449-.449h-7.892a.45.45,0,0,0,0,.9h7.892A.45.45,0,0,0,197.288,310.054Z" transform="translate(-121.187 -237.205)" fill="#fff"/>
    <path id="Path_274"  d="M249.244,365.395h-7.4a.449.449,0,0,0,0,.9h7.4a.449.449,0,1,0,0-.9Z" transform="translate(-171.194 -289.943)" fill="#fff"/>
  </g>
</svg>
