<svg id="Component_33_1" data-name="Component 33 – 1" xmlns="http://www.w3.org/2000/svg" width="123" height="123" viewBox="0 0 123 123">
  <circle id="_129-512" data-name="129-512" cx="61.5" cy="61.5" r="61.5" fill="#fff"/>
  <g id="Group_49" data-name="Group 49" transform="translate(25.816 18.223)">
    <path id="Path_82" data-name="Path 82" d="M99.23,156.209a20.61,20.61,0,1,0-14.568-6.036,19.934,19.934,0,0,0,14.568,6.036Zm0,0" transform="translate(-64.083 -115)" fill="#45afe1"/>
    <path id="Path_83" data-name="Path 83" d="M80.2,337.311a50.931,50.931,0,0,0-.693-5.405,42.545,42.545,0,0,0-1.329-5.435,26.893,26.893,0,0,0-2.235-5.069,19.111,19.111,0,0,0-3.369-4.39,14.858,14.858,0,0,0-4.84-3.041,16.727,16.727,0,0,0-6.178-1.118c-.874,0-1.718.358-3.349,1.42-1,.654-2.178,1.411-3.489,2.249a19.986,19.986,0,0,1-4.514,1.988,17.523,17.523,0,0,1-11.042,0,19.936,19.936,0,0,1-4.511-1.988c-1.3-.83-2.473-1.587-3.492-2.251-1.629-1.061-2.475-1.42-3.347-1.42a16.71,16.71,0,0,0-6.178,1.119,14.839,14.839,0,0,0-4.841,3.042,19.117,19.117,0,0,0-3.368,4.389,26.907,26.907,0,0,0-2.234,5.07,42.492,42.492,0,0,0-1.329,5.434,50.75,50.75,0,0,0-.693,5.408C9.057,338.95,9,340.65,9,342.366a14.207,14.207,0,0,0,4.219,10.747,15.191,15.191,0,0,0,10.871,3.965H65.282a15.187,15.187,0,0,0,10.871-3.965,14.2,14.2,0,0,0,4.22-10.748c0-1.724-.059-3.424-.173-5.053Zm0,0" transform="translate(-9 -271.529)" fill="#45afe1"/>
  </g>
</svg>
