<svg xmlns="http://www.w3.org/2000/svg" width="26.955" height="22" viewBox="0 0 26.955 22">
  <path id="iconfinder_31.ID-Horizontal_290119" d="M25.611,27H3.344A2.361,2.361,0,0,1,1,24.622V12.135A2.361,2.361,0,0,1,3.344,9.757h8.79V7.378a2.344,2.344,0,1,1,4.688,0V9.757h8.79a2.361,2.361,0,0,1,2.344,2.378V24.622A2.361,2.361,0,0,1,25.611,27ZM10.384,22.533v0s-.011-.464-.011-.464a6.567,6.567,0,0,0,1.19-.819,1.811,1.811,0,0,0,.434-.81,20.284,20.284,0,0,0,.139-2.2A2.284,2.284,0,0,0,9.789,15.7v0A2.284,2.284,0,0,0,7.441,18.24a20.433,20.433,0,0,0,.139,2.2,1.811,1.811,0,0,0,.434.81,6.567,6.567,0,0,0,1.19.819s-.008.464-.011.464v0s.017.681.017.884a1.288,1.288,0,0,1-1.3,1.2h0c-1.519.067-1.878.58-1.881.585a2.911,2.911,0,0,0-.339.609h8.206a2.779,2.779,0,0,0-.341-.608c0-.005-.362-.518-1.881-.585h0a1.288,1.288,0,0,1-1.3-1.2C10.366,23.215,10.384,22.533,10.384,22.533ZM15.65,7.378a1.172,1.172,0,1,0-2.344,0v3.568a1.172,1.172,0,1,0,2.344,0Zm11.134,4.757a1.181,1.181,0,0,0-1.172-1.189h-8.79a2.344,2.344,0,1,1-4.688,0H3.344a1.181,1.181,0,0,0-1.172,1.189V24.622a1.181,1.181,0,0,0,1.172,1.189H4.4a6.481,6.481,0,0,1,.68-1.332c.015-.008.5-1.034,2.929-1.064,0-.012.006-.62.013-.611a4.278,4.278,0,0,1-.616-.485,2.5,2.5,0,0,1-.851-1.536,23.792,23.792,0,0,1-.286-2.477c0-1.885.741-3.794,3.488-3.794h.071c2.747,0,3.488,1.909,3.488,3.794a23.791,23.791,0,0,1-.286,2.477,2.5,2.5,0,0,1-.851,1.536,4.175,4.175,0,0,1-.616.485c.008-.009.01.6.013.611,2.432.03,2.915,1.056,2.929,1.064a6.481,6.481,0,0,1,.68,1.332H25.611a1.181,1.181,0,0,0,1.172-1.189Zm-2.93,5.351H16.822a.595.595,0,0,1,0-1.189h7.032a.595.595,0,0,1,0,1.189Zm-7.032,2.378h1.172a.595.595,0,0,1,0,1.189H16.822a.595.595,0,0,1,0-1.189Zm0,2.378h3.516a.595.595,0,0,1,0,1.189H16.822a.595.595,0,0,1,0-1.189Zm2.344-1.784a.59.59,0,0,1,.586-.595H22.1a.595.595,0,0,1,0,1.189H19.752A.59.59,0,0,1,19.166,20.459ZM13.892,7.378h1.172V8.568H13.892Z" transform="translate(-1 -5)" fill="#f5f5f5" fill-rule="evenodd"/>
</svg>
