<svg id="Component_6_1" data-name="Component 6 – 1" xmlns="http://www.w3.org/2000/svg" width="28.668" height="25.103" viewBox="0 0 28.668 25.103">
  <path id="icon" d="M808.433,105.645a1.564,1.564,0,0,1,1.106-2.67H797.807a.793.793,0,0,1-.782-.782,1.355,1.355,0,0,1,.134-.483c.09-.208.21-.45.361-.727s.234-.431.25-.464l-2.163-10.059h-2.493a.782.782,0,0,1,0-1.563h3.128a.742.742,0,0,1,.348.079.783.783,0,0,1,.245.19.974.974,0,0,1,.158.3,2.16,2.16,0,0,1,.092.324c.016.089.039.21.068.36s.047.256.055.311h14.677a.795.795,0,0,1,.782.783V97.5a.771.771,0,0,1-.2.52.759.759,0,0,1-.5.263l-12.758,1.49c.008.058.026.145.055.263s.053.227.073.324a1.3,1.3,0,0,1,.031.269l-.2.594-.091.188h11.244a.782.782,0,0,1,0,1.564h-.782a1.564,1.564,0,1,1-1.106,2.67Zm-10.95,0a1.564,1.564,0,1,1,1.106.458A1.508,1.508,0,0,1,797.483,105.645Z" transform="translate(-792.332 -81)" fill="#555"/>
</svg>
