<svg id="Component_22_1" data-name="Component 22 – 1" xmlns="http://www.w3.org/2000/svg" width="26" height="26" viewBox="0 0 26 26">
  <path id="Path_49" data-name="Path 49" d="M-63,64A13.014,13.014,0,0,0-76,77,13.014,13.014,0,0,0-63,90,13.014,13.014,0,0,0-50,77,13.014,13.014,0,0,0-63,64Zm0,0" transform="translate(76 -64)" fill="#45afe1"/>
  <path id="Path_50" data-name="Path 50" d="M59.126,194.522h-4.6v4.6a1.083,1.083,0,0,1-2.167,0v-4.6h-4.6a1.083,1.083,0,1,1,0-2.167h4.6v-4.6a1.083,1.083,0,1,1,2.167,0v4.6h4.6a1.083,1.083,0,1,1,0,2.167Zm0,0" transform="translate(-40.439 -180.439)" fill="#fafafa"/>
</svg>
