<svg id="iconfinder_Idea_Solution_Business_Management_3839439" xmlns="http://www.w3.org/2000/svg" width="22.441" height="22.432" viewBox="0 0 22.441 22.432">
  <path id="Path_275" data-name="Path 275" d="M11.728,24.306h2.243a3.364,3.364,0,0,0,3.364-3.364v-.987a4.586,4.586,0,0,1,1.357-3.263A6.863,6.863,0,0,0,20.7,11.837V10.85a7.85,7.85,0,0,0-15.7,0v.987a6.863,6.863,0,0,0,2.007,4.856,4.586,4.586,0,0,1,1.357,3.263v.987A3.364,3.364,0,0,0,11.728,24.306Zm2.243-2.243H11.728a1.121,1.121,0,0,1-1.121-1.121h4.486A1.121,1.121,0,0,1,13.971,22.064ZM7.243,10.85a5.607,5.607,0,0,1,11.214,0v.987A4.587,4.587,0,0,1,17.1,15.1a6.852,6.852,0,0,0-1.884,3.6H13.971v-.516a6.448,6.448,0,0,0-2.86-5.36,1.121,1.121,0,0,1-.5-.931V11.41a.561.561,0,1,1,1.121,0v.561a1.121,1.121,0,1,0,2.243,0V11.41a.561.561,0,1,1,1.121,0v.482a1.121,1.121,0,0,1-.493.931,1.121,1.121,0,1,0,1.234,1.862,3.364,3.364,0,0,0,1.5-2.792V11.41A2.8,2.8,0,0,0,12.85,9.168,2.8,2.8,0,0,0,8.364,11.41v.482a3.364,3.364,0,0,0,1.5,2.8,4.172,4.172,0,0,1,1.862,3.488V18.7H10.484A6.852,6.852,0,0,0,8.6,15.1a4.586,4.586,0,0,1-1.357-3.263Z" transform="translate(-1.629 -1.874)" fill="#fff"/>
  <path id="Path_276" data-name="Path 276" d="M20.569,2.326,18.326,4.568a1.126,1.126,0,1,0,1.592,1.592l2.243-2.243a1.126,1.126,0,0,0-1.592-1.592Z" transform="translate(-0.052 -1.996)" fill="#fff"/>
  <path id="Path_277" data-name="Path 277" d="M3.918,2.326A1.126,1.126,0,0,0,2.326,3.918L4.568,6.161A1.126,1.126,0,1,0,6.161,4.568Z" transform="translate(-1.994 -1.996)" fill="#fff"/>
  <path id="Path_278" data-name="Path 278" d="M19.918,16.326a1.126,1.126,0,0,0-1.592,1.592l2.243,2.243a1.126,1.126,0,1,0,1.592-1.592Z" transform="translate(-0.052 -0.296)" fill="#fff"/>
  <path id="Path_279" data-name="Path 279" d="M3.122,20.486a1.121,1.121,0,0,0,.8-.325l2.243-2.243a1.126,1.126,0,0,0-1.592-1.592L2.326,18.568a1.121,1.121,0,0,0,.8,1.918Z" transform="translate(-1.994 -0.296)" fill="#fff"/>
</svg>
