<svg id="iconfinder_earning_profit_finance_money_growth_6617668" xmlns="http://www.w3.org/2000/svg" width="27" height="27" viewBox="0 0 27 27">
  <path id="Path_586" data-name="Path 586" d="M27.936,1.558A.914.914,0,0,0,27.108,1h-3.6a.9.9,0,0,0,0,1.8h1.431L23.715,4.024,19.674,8.875,14.913,6.5a.9.9,0,0,0-1.044.171l-4.851,4.9L5.067,9.226a.9.9,0,0,0-.954,0l-2.7,1.8A.9.9,0,0,0,2.4,12.52l2.205-1.458,4.068,2.412a.954.954,0,0,0,.459.126.9.9,0,0,0,.639-.27L14.688,8.4,19.5,10.8a.9.9,0,0,0,1.1-.225l4.446-5.337,1.161-1.17V5.5a.9.9,0,0,0,1.8,0V1.9a.9.9,0,0,0-.072-.342Z" transform="translate(-1.008 -1)" fill="#45afe1"/>
  <path id="Path_587" data-name="Path 587" d="M7.3,21H1.9a.9.9,0,0,0-.9.9v2.7H8.2V21.9A.9.9,0,0,0,7.3,21Z" transform="translate(-1 -3)" fill="#45afe1"/>
  <path id="Path_588" data-name="Path 588" d="M1,29.7a.9.9,0,0,0,.9.9H7.3a.9.9,0,0,0,.9-.9V27H1Z" transform="translate(-1 -3.6)" fill="#45afe1"/>
  <path id="Path_589" data-name="Path 589" d="M18.3,17H12.9a.9.9,0,0,0-.9.9v2.7h7.2V17.9A.9.9,0,0,0,18.3,17Z" transform="translate(-2.1 -2.6)" fill="#45afe1"/>
  <path id="Path_590" data-name="Path 590" d="M12,29.7a.9.9,0,0,0,.9.9h5.4a.9.9,0,0,0,.9-.9V27H12Z" transform="translate(-2.1 -3.6)" fill="#45afe1"/>
  <rect id="Rectangle_1738" data-name="Rectangle 1738" width="7" height="2" transform="translate(10 20)" fill="#45afe1"/>
  <rect id="Rectangle_1739" data-name="Rectangle 1739" width="7" height="2" transform="translate(20 20)" fill="#45afe1"/>
  <rect id="Rectangle_1740" data-name="Rectangle 1740" width="7" height="2" transform="translate(20 16)" fill="#45afe1"/>
  <path id="Path_591" data-name="Path 591" d="M23,29.7a.9.9,0,0,0,.9.9h5.4a.9.9,0,0,0,.9-.9V27H23Z" transform="translate(-3.2 -3.6)" fill="#45afe1"/>
  <path id="Path_592" data-name="Path 592" d="M29.3,13H23.9a.9.9,0,0,0-.9.9v2.7h7.2V13.9A.9.9,0,0,0,29.3,13Z" transform="translate(-3.2 -2.2)" fill="#45afe1"/>
</svg>
