<svg id="Component_16_1" data-name="Component 16 – 1" xmlns="http://www.w3.org/2000/svg" width="414" height="398.706" viewBox="0 0 414 398.706">
  <g id="Group_90" data-name="Group 90" transform="translate(288.515 38.412)">
    <g id="Group_89" data-name="Group 89" transform="translate(0 0)">
      <g id="Group_88" data-name="Group 88">
        <path id="Path_282" data-name="Path 282" d="M2771.917,1025.081V987.891a7.089,7.089,0,0,1,7.089-7.089H2807.3a7.089,7.089,0,0,1,7.09,7.089v37.191h-42.473Z" transform="translate(-2771.917 -980.802)" fill="#bf4e23"/>
        <path id="Path_283" data-name="Path 283" d="M2771.917,1552.766v-37.19h42.473v37.19a7.09,7.09,0,0,1-7.09,7.09h-28.294A7.089,7.089,0,0,1,2771.917,1552.766Z" transform="translate(-2771.917 -1471.297)" fill="#bb351c"/>
      </g>
      <path id="Path_284" data-name="Path 284" d="M2920.625,1845.533a6.883,6.883,0,1,0-6.882-6.883A6.883,6.883,0,0,0,2920.625,1845.533Z" transform="translate(-2902 -1761.308)" fill="#fff"/>
    </g>
  </g>
  <g id="Group_92" data-name="Group 92" transform="translate(129.046)">
    <g id="Group_91" data-name="Group 91" transform="translate(71.061)">
      <path id="Path_285" data-name="Path 285" d="M1704.2,632.515c14.653-10.34,28.8-20.941,43.566-30.6,22.051-14.432,33.771-40.529,25.552-60.074-6.107-14.527-17.308-22.8-33.221-24.64-14.9-1.729-25.895,3.759-32.935,16.945-1.355,2.55-2.822,5.478-2.842,8.234C1704.129,572.708,1704.2,603.033,1704.2,632.515Z" transform="translate(-1704.19 -516.89)" fill="#58c6ef" fill-rule="evenodd"/>
    </g>
    <path id="Path_286" data-name="Path 286" d="M917.711,632.515c-14.653-10.34-28.8-20.941-43.567-30.6-22.05-14.427-33.771-40.529-25.552-60.074,6.1-14.527,17.308-22.8,33.221-24.64,14.9-1.729,25.9,3.759,32.935,16.945,1.356,2.55,2.822,5.478,2.842,8.234C917.787,572.708,917.711,603.033,917.711,632.515Z" transform="translate(-845.961 -516.89)" fill="#45afe1" fill-rule="evenodd"/>
  </g>
  <path id="Path_287" data-name="Path 287" d="M1505.412,759.891s-8.782-22.538-26.052-27.806-67.031-2.048-67.031-2.048-23.811-1.012-11.713,17.853c7.322,11.418,39.519,9.953,40.69,9.953,0,0,14.633,36.3,44.493,36s19.906-.588,19.906-.588Z" transform="translate(-1222.502 -711.495)" fill="#ffebb4"/>
  <g id="Group_93" data-name="Group 93" transform="translate(320.426 31.666)">
    <path id="Path_288" data-name="Path 288" d="M3204.409,1501.992h-47.091v43.02c0,3.8,1.3,6.883,2.913,6.883h90.661v-49.9Z" transform="translate(-3157.319 -1452.092)" fill="#513131"/>
    <path id="Path_289" data-name="Path 289" d="M3250.893,949.233v-49.9h-90.661c-1.609,0-2.913,3.081-2.913,6.883v43.018h93.574Z" transform="translate(-3157.319 -899.333)" fill="#5a3838"/>
  </g>
  <g id="Group_100" data-name="Group 100" transform="translate(0 235.352)">
    <g id="Group_98" data-name="Group 98" transform="translate(127.616 0)">
      <g id="Group_94" data-name="Group 94" transform="translate(45.462)">
        <path id="Path_290" data-name="Path 290" d="M2096.046,2683.341s.736-1.433,1.947-3.8c5.541-10.838,21.066-41.364,21.933-44.821,1.045-4.21,1.3-33.886,1.3-33.886s19.452-13.044,26.82,21.694c7.389,34.748-2.218,39.1-2.218,39.1l6.634-.1,46.78-4.772c5.7-.582,10.846,4.222,11.5,10.728s-3.414,12.247-9.1,12.829l-13.981,1.421.064.517,17.623-1.8a11.845,11.845,0,0,1,2.4,23.568l-1.5.15a11.456,11.456,0,0,1,9.306,10.427c.657,6.5-3.5,12.246-9.274,12.838l-3.672.377c3.63,1.335,6.548,5.31,7.055,10.329.657,6.507-2.9,12.193-7.96,12.71l-29.168,2.973c-11.138,1.841-24.365,3.564-34.953,3.564a104.7,104.7,0,0,1-33.839-5.312,84.754,84.754,0,0,0-11.524-3.094,1.943,1.943,0,0,1-1.906-2.065V2685.6C2090.322,2682.636,2096.046,2684.208,2096.046,2683.341Z" transform="translate(-2090.322 -2598.433)" fill="#ffebb4"/>
      </g>
      <g id="Group_97" data-name="Group 97" transform="translate(0 70.078)">
        <g id="Group_96" data-name="Group 96">
          <g id="Group_95" data-name="Group 95">
            <path id="Path_291" data-name="Path 291" d="M1583.835,3489.166v-37.277a7.106,7.106,0,0,0-7.106-7.106h-28.36a7.106,7.106,0,0,0-7.107,7.106v37.277h42.573Z" transform="translate(-1541.262 -3444.782)" fill="#bf4e23"/>
            <path id="Path_292" data-name="Path 292" d="M1583.835,4018.087V3980.81h-42.573v37.277a7.107,7.107,0,0,0,7.107,7.107h28.36A7.106,7.106,0,0,0,1583.835,4018.087Z" transform="translate(-1541.262 -3936.427)" fill="#bb351c"/>
          </g>
          <path id="Path_293" data-name="Path 293" d="M1753.535,4311.543a6.9,6.9,0,1,1,6.9-6.9A6.9,6.9,0,0,1,1753.535,4311.543Z" transform="translate(-1729.632 -4227.121)" fill="#fff"/>
        </g>
      </g>
    </g>
    <g id="Group_99" data-name="Group 99" transform="translate(0 63.316)">
      <path id="Path_294" data-name="Path 294" d="M0,3967.2v50.02H133.442c2.629,0,4.761-3.089,4.761-6.9V3967.2H0Z" transform="translate(0 -3917.179)" fill="#513131"/>
      <path id="Path_295" data-name="Path 295" d="M133.442,3363.123H0v50.017H138.2v-43.118C138.2,3366.211,136.071,3363.123,133.442,3363.123Z" transform="translate(0 -3363.123)" fill="#5a3838"/>
    </g>
  </g>
</svg>
