<svg id="Component_38_1" data-name="Component 38 – 1" xmlns="http://www.w3.org/2000/svg" width="380.01" height="442.817" viewBox="0 0 380.01 442.817">
  <g id="Group_723" data-name="Group 723" transform="translate(-60.102 -28.266)" opacity="0.82">
    <g id="Group_709" data-name="Group 709">
      <g id="Group_703" data-name="Group 703">
        <path id="Path_776" data-name="Path 776" d="M336.927,371.409l4.494,93.262L417.466,453.7,433.03,362.9Z" fill="#1763b0"/>
        <path id="Path_777" data-name="Path 777" d="M336.927,371.409l4.494,93.262L297.429,453.7,282.05,362.9Z" fill="#0f4b87"/>
        <path id="Path_778" data-name="Path 778" d="M277.624,357.364l2.272,18.974,55.445,7.921L334.61,365.5Z" fill="#1763b0"/>
        <path id="Path_779" data-name="Path 779" d="M440.112,357.364l-3.451,18.973-101.319,7.921L334.61,365.5Z" fill="#207ede"/>
        <path id="Path_780" data-name="Path 780" d="M277.624,357.364,334.61,365.5l105.5-8.134-69.518-5.533Z" fill="#389dff"/>
        <path id="Path_781" data-name="Path 781" d="M312.9,362.3l90.478-7.855-16.018-1.275-89.942,7.024Z" fill="#e74f41"/>
        <path id="Path_782" data-name="Path 782" d="M399.566,360.49,339.6,353.675l-10.426.6,54.28,7.454Z" fill="#e74f41"/>
        <path id="Path_783" data-name="Path 783" d="M284.436,376.986l.772,4.556,52.592,7.966,92.148-8.621.7-4.079-93.108,7.279-2.2.172Z" opacity="0.12"/>
        <path id="Path_784" data-name="Path 784" d="M392.633,457.28l-14.539,2.093,5.359-97.642,16.113-1.242Z" fill="#c3392c"/>
        <path id="Path_785" data-name="Path 785" d="M307.313,456.163l12.871,3.211L312.9,362.3l-15.482-2.106Z" fill="#9e251b"/>
        <g id="Group_700" data-name="Group 700">
          <g id="Group_699" data-name="Group 699">
            <path id="Path_786" data-name="Path 786" d="M397.6,328.623c-12.84-11.428-38.728,25.394-38.728,25.394l.739,2.539s29.842-16.326,39.171-17.046c7.356-.568,7.221,4.942-.439,7.67-6.979,2.486-38.732,9.376-38.732,9.376s-.491.473,24.3-3.514c19.7-3.167,24.155-7.017,24.27-12.856C408.291,334.324,403.032,333.461,397.6,328.623Z" fill="#e74f41"/>
            <path id="Path_787" data-name="Path 787" d="M383.9,353.042c19.007-3.056,23.823-6.749,24.24-12.252-3.342-2.052-9.367-1.28-9.367-1.28,7.356-.568,7.221,4.942-.439,7.67-6.979,2.486-38.732,9.376-38.732,9.376l.005.006C359.687,356.6,361.059,356.717,383.9,353.042Z" fill="#9e251b"/>
          </g>
          <path id="Path_788" data-name="Path 788" d="M377.474,347.45s-.832-2.145-4.97-2.463-4.295-2.544-4.295-2.545a138.113,138.113,0,0,0-9.341,11.575l.739,2.539s8.509-4.654,17.859-9.1Z" fill="#c3392c"/>
        </g>
        <g id="Group_702" data-name="Group 702">
          <g id="Group_701" data-name="Group 701">
            <path id="Path_789" data-name="Path 789" d="M320.139,328.623c12.84-11.428,38.729,25.394,38.729,25.394l-.74,2.539s-29.842-16.326-39.171-17.046c-7.356-.568-7.22,4.942.439,7.67,6.979,2.486,38.732,9.376,38.732,9.376s.491.473-24.3-3.514c-19.695-3.167-24.154-7.017-24.27-12.856C309.444,334.324,314.7,333.461,320.139,328.623Z" fill="#e74f41"/>
            <path id="Path_790" data-name="Path 790" d="M333.83,353.042c-19.006-3.056-23.822-6.749-24.24-12.252,3.343-2.052,9.367-1.28,9.367-1.28-7.356-.568-7.22,4.942.439,7.67,6.98,2.486,38.732,9.376,38.732,9.376l0,.006C358.049,356.6,356.677,356.717,333.83,353.042Z" fill="#9e251b"/>
          </g>
          <path id="Path_791" data-name="Path 791" d="M340.262,347.45s.831-2.145,4.969-2.463,4.3-2.544,4.3-2.545a138.261,138.261,0,0,1,9.342,11.575l-.74,2.539s-8.508-4.654-17.859-9.1Z" fill="#c3392c"/>
        </g>
        <path id="Path_792" data-name="Path 792" d="M368.037,357.364H348.722a1.205,1.205,0,0,1-1.2-1.205h0a3.949,3.949,0,0,1,3.95-3.95h13.824a3.949,3.949,0,0,1,3.95,3.95h0A1.2,1.2,0,0,1,368.037,357.364Z" fill="#fc6858"/>
      </g>
      <g id="Group_708" data-name="Group 708">
        <path id="Path_793" data-name="Path 793" d="M119.406,371.409l4.494,93.262L199.944,453.7,215.508,362.9Z" fill="#257d14"/>
        <path id="Path_794" data-name="Path 794" d="M119.406,371.409l4.494,93.262L79.908,453.7,64.529,362.9Z" fill="#2ea61c"/>
        <path id="Path_795" data-name="Path 795" d="M60.1,357.364l2.272,18.974,55.445,7.921-.732-18.761Z" fill="#34c422"/>
        <path id="Path_796" data-name="Path 796" d="M222.591,357.364l-3.451,18.973L117.82,384.259l-.732-18.761Z" fill="#2ea61c"/>
        <path id="Path_797" data-name="Path 797" d="M60.1,357.364l56.986,8.134,105.5-8.134-69.518-5.533Z" fill="#54ed42"/>
        <path id="Path_798" data-name="Path 798" d="M95.379,362.3l90.478-7.855-16.018-1.275L79.9,360.189Z" fill="#1763b0"/>
        <path id="Path_799" data-name="Path 799" d="M182.045,360.49l-59.966-6.814-10.426.6,54.28,7.454Z" fill="#1763b0"/>
        <path id="Path_800" data-name="Path 800" d="M66.914,376.986l.772,4.556,52.592,7.966,92.148-8.621.7-4.079-93.108,7.279-2.2.172Z" opacity="0.12"/>
        <path id="Path_801" data-name="Path 801" d="M175.112,457.28l-14.539,2.093,5.36-97.642,16.113-1.242Z" fill="#1763b0"/>
        <path id="Path_802" data-name="Path 802" d="M89.792,456.163l12.871,3.211L95.379,362.3,79.9,360.189Z" fill="#1763b0"/>
        <g id="Group_705" data-name="Group 705">
          <g id="Group_704" data-name="Group 704">
            <path id="Path_803" data-name="Path 803" d="M180.075,328.623c-12.84-11.428-38.729,25.394-38.729,25.394l.74,2.539s29.842-16.326,39.171-17.046c7.356-.568,7.22,4.942-.439,7.67-6.979,2.486-38.732,9.376-38.732,9.376s-.491.473,24.3-3.514c19.695-3.167,24.154-7.017,24.27-12.856C190.77,334.324,185.51,333.461,180.075,328.623Z" fill="#1763b0"/>
            <path id="Path_804" data-name="Path 804" d="M166.384,353.042c19.007-3.056,23.823-6.749,24.24-12.252-3.342-2.052-9.367-1.28-9.367-1.28,7.356-.568,7.22,4.942-.439,7.67-6.979,2.486-38.732,9.376-38.732,9.376l0,.006C142.165,356.6,143.537,356.717,166.384,353.042Z" fill="#13579c"/>
          </g>
          <path id="Path_805" data-name="Path 805" d="M159.953,347.45s-.832-2.145-4.97-2.463-4.295-2.544-4.295-2.545a138.261,138.261,0,0,0-9.342,11.575l.74,2.539s8.509-4.654,17.859-9.1Z" fill="#13579c"/>
        </g>
        <g id="Group_707" data-name="Group 707">
          <g id="Group_706" data-name="Group 706">
            <path id="Path_806" data-name="Path 806" d="M102.618,328.623c12.84-11.428,38.728,25.394,38.728,25.394l-.739,2.539s-29.842-16.326-39.171-17.046c-7.356-.568-7.221,4.942.439,7.67,6.979,2.486,38.732,9.376,38.732,9.376s.491.473-24.3-3.514c-19.695-3.167-24.155-7.017-24.27-12.856C91.923,334.324,97.182,333.461,102.618,328.623Z" fill="#1763b0"/>
            <path id="Path_807" data-name="Path 807" d="M116.309,353.042c-19.007-3.056-23.823-6.749-24.24-12.252,3.342-2.052,9.367-1.28,9.367-1.28-7.356-.568-7.221,4.942.439,7.67,6.979,2.486,38.732,9.376,38.732,9.376l0,.006C140.527,356.6,139.156,356.717,116.309,353.042Z" fill="#13579c"/>
          </g>
          <path id="Path_808" data-name="Path 808" d="M122.74,347.45s.832-2.145,4.97-2.463,4.3-2.544,4.3-2.545a138.114,138.114,0,0,1,9.341,11.575l-.739,2.539s-8.509-4.654-17.859-9.1Z" fill="#13579c"/>
        </g>
        <path id="Path_809" data-name="Path 809" d="M150.515,357.364H131.2a1.206,1.206,0,0,1-1.205-1.205h0a3.95,3.95,0,0,1,3.951-3.95H147.77a3.949,3.949,0,0,1,3.95,3.95h0A1.205,1.205,0,0,1,150.515,357.364Z" fill="#207ede"/>
      </g>
    </g>
    <path id="Path_810" data-name="Path 810" d="M328.754,250.824c-4.5.067-10.925,1.217-14.974,9.243l-3.147-.443A16.719,16.719,0,0,1,329.518,245.4Q329.135,248.11,328.754,250.824Z" fill="#f77c16"/>
    <g id="Group_722" data-name="Group 722">
      <g id="Group_720" data-name="Group 720">
        <g id="Group_711" data-name="Group 711">
          <path id="Path_811" data-name="Path 811" d="M172.491,312.373l77.616,12.033,77.616-12.033-77.616-7.942Z" fill="#a32f25"/>
          <path id="Path_812" data-name="Path 812" d="M211.3,318.389l38.808,6.016,38.808-6.016-38.808-3.971Z" fill="#75231b"/>
          <g id="Group_710" data-name="Group 710">
            <path id="Path_813" data-name="Path 813" d="M290.039,354.486l-9.389.814a86,86,0,0,1,37.892-78.926,73.727,73.727,0,0,0-3.042,8.064,76.12,76.12,0,0,1,8.279-.228A76.571,76.571,0,0,0,290.039,354.486Z" fill="#f77c16"/>
            <path id="Path_814" data-name="Path 814" d="M308.429,349.377l-10.1-1.558a93.233,93.233,0,0,1,60.214-73.375,79.648,79.648,0,0,0-5.279,7.71,82.728,82.728,0,0,1,8.778,1.889A83.015,83.015,0,0,0,308.429,349.377Z" fill="#389dff"/>
            <path id="Path_815" data-name="Path 815" d="M266.264,354.114l-9.705-.573a123.178,123.178,0,0,1,44.082-87.35,105.7,105.7,0,0,0-2.146,15.19A113.466,113.466,0,0,0,266.264,354.114Z" fill="#2ea61c"/>
          </g>
          <path id="Path_816" data-name="Path 816" d="M203.119,328.676l9.3-1.509a86,86,0,0,0-56.061-67.247A39.941,39.941,0,0,0,153.2,268.8,76.571,76.571,0,0,1,203.119,328.676Z" fill="#389dff"/>
          <path id="Path_817" data-name="Path 817" d="M196.115,347.491l9.854-2.7a93.234,93.234,0,0,0-68.19-66.027,79.653,79.653,0,0,1,6.123,7.058,82.192,82.192,0,0,0-8.5,2.878A83.016,83.016,0,0,1,196.115,347.491Z" fill="#2ea61c"/>
          <path id="Path_818" data-name="Path 818" d="M235.086,352.9l9.684-.841a123.181,123.181,0,0,0-46.474-86.1,105.885,105.885,0,0,1,2.563,15.125A113.461,113.461,0,0,1,235.086,352.9Z" fill="#f77c16"/>
          <path id="Path_819" data-name="Path 819" d="M250.107,324.406V471.082l60.326-14.347,17.29-144.362Z" fill="#c3392c"/>
          <path id="Path_820" data-name="Path 820" d="M250.107,324.406V471.082l-60.325-14.347-17.29-144.362Z" fill="#e74f41"/>
        </g>
        <g id="Group_714" data-name="Group 714">
          <g id="Group_712" data-name="Group 712">
            <path id="Path_821" data-name="Path 821" d="M307.351,430.327s-7.409,3.259-8.941,18.762a29.031,29.031,0,0,1-3.165,11.258l-19.675,4.691a36.728,36.728,0,0,0,6.012-12.609c1.864-8.077,2.1-10.088,2.1-10.088s1.251-4.763,14.059-11.245C301.645,429.118,307.351,430.327,307.351,430.327Z" fill="#c7c7c7"/>
            <path id="Path_822" data-name="Path 822" d="M283.678,442.341c1.479-7.044,6.155-13.318,11.988-16.319,26.726-13.756,59.649,15.108,59.649,15.108l-4.6-.486,1.021,4.933-5.447-.68,2.383,4.765-5.106-1.021,1.362,3.745-5.447-1.362-.74,5.858s-15.845-19.529-24.977-22.995A27.142,27.142,0,0,0,283.678,442.341Z" fill="#fff"/>
          </g>
          <g id="Group_713" data-name="Group 713">
            <path id="Path_823" data-name="Path 823" d="M192.863,430.37s7.08,4.05,9.391,19.77c1.05,7.141,2.705,10.215,2.705,10.215l19.685,4.726a36.748,36.748,0,0,1-6.012-12.609c-1.864-8.078-2.1-10.088-2.1-10.088s-1.252-4.763-14.06-11.245C198.569,429.161,192.863,430.37,192.863,430.37Z" fill="#c7c7c7"/>
            <path id="Path_824" data-name="Path 824" d="M216.537,442.384c-1.48-7.044-6.156-13.318-11.989-16.319-26.726-13.756-59.649,15.108-59.649,15.108l4.6-.486-1.021,4.933,5.447-.681-2.383,4.766,5.106-1.021-1.362,3.745,5.447-1.362.74,5.858s16.482-19.254,25.613-22.72A26.052,26.052,0,0,1,216.537,442.384Z" fill="#fff"/>
          </g>
        </g>
        <g id="Group_719" data-name="Group 719">
          <g id="Group_717" data-name="Group 717">
            <g id="Group_715" data-name="Group 715">
              <path id="Path_825" data-name="Path 825" d="M254.711,68.912s36.909-30.905,51.857-23.72c7.11,3.418,5.273,5.853,12.327,10.538,7.835,5.205,8.767,10.874,8.024,15.2-1.427,8.3-3.309,7.968-6.749,20.922-5.144,19.37-67.209-13.412-67.209-13.412Z" fill="#fff"/>
              <path id="Path_826" data-name="Path 826" d="M279.016,90.295c7.774-5.843,14.736-11.142,14.736-11.142s-3.649-4.3-4.172-7.479c-.623-3.788.43-8.08-2.551-12.432a30.624,30.624,0,0,1-4.112-9.357c-14.233,7.329-28.206,19.027-28.206,19.027l-1.75,9.523S265.06,84.825,279.016,90.295Z" fill="#ebebeb"/>
              <path id="Path_827" data-name="Path 827" d="M310.343,97.938c4.474-1.368,5.78-6.64-.246-13.725-7.159-8.417-57.136-5.778-57.136-5.778S291.482,98.778,310.343,97.938Z" fill="#b3b3b3"/>
            </g>
            <g id="Group_716" data-name="Group 716">
              <path id="Path_828" data-name="Path 828" d="M254.711,68.912S231.208,26.9,214.681,28.3c-7.86.665-7.009,3.594-15.268,5.465-9.174,2.077-12.062,7.044-12.9,11.347-1.617,8.261.258,8.624-1.134,21.954C183.294,87,252.961,78.435,252.961,78.435Z" fill="#fff"/>
              <path id="Path_829" data-name="Path 829" d="M224.39,80.253C219.2,72.027,214.581,64.6,214.581,64.6s4.941-2.722,6.559-5.506c1.93-3.319,2.472-7.7,6.807-10.712a30.6,30.6,0,0,0,7.17-7.283c10.7,11.912,19.594,27.815,19.594,27.815l-1.75,9.523S239.38,80.1,224.39,80.253Z" fill="#ebebeb"/>
              <path id="Path_830" data-name="Path 830" d="M192.394,76.254c-3.695-2.87-3.04-8.261,5.111-12.74,9.685-5.32,55.456,14.921,55.456,14.921S209.723,83.747,192.394,76.254Z" fill="#b3b3b3"/>
            </g>
            <path id="Path_831" data-name="Path 831" d="M262.6,59.434,251.4,57.377a6.506,6.506,0,0,0-7.576,5.223l-3.234,17.59L264.584,84.6l3.233-17.591A6.506,6.506,0,0,0,262.6,59.434Z" fill="#fff"/>
          </g>
          <g id="Group_718" data-name="Group 718">
            <path id="Path_832" data-name="Path 832" d="M330.092,124.657l1.6-24.93-77.68-27.372L249.575,96.29Z" fill="#e74f41"/>
            <path id="Path_833" data-name="Path 833" d="M164.241,93.9l7.443-23.847,82.329,2.3L249.575,96.29Z" fill="#ec695a"/>
            <path id="Path_834" data-name="Path 834" d="M330.092,124.657,249.575,96.29,164.241,93.9l81.266,24.327Z" fill="#a32f25"/>
            <path id="Path_835" data-name="Path 835" d="M208.7,95.147,247.973,106.9l40.454,3.073L249.575,96.29Z" fill="#75231b"/>
          </g>
          <path id="Path_836" data-name="Path 836" d="M286.02,83.621s1.089,11.991-2.319,23.166a77.635,77.635,0,0,1-7.839,18l5.812-1.7.2,5.852,4.9-2.925.935,5.482,5.017-2.756.278,4.918,4.52-2.5,1.53,4.428a54.387,54.387,0,0,0,7.9-24.049,76.537,76.537,0,0,0-.665-20.772Z" fill="#fff"/>
          <path id="Path_837" data-name="Path 837" d="M216.817,71.275s-5.9,12.045-6.793,25.028a86.466,86.466,0,0,0,1,21.846l-5.37-4.083-2.534,6.01-3.933-4.99-3.152,5.333-4.125-4.862-2.244,5.007-3.711-4.4-3.352,4A60.572,60.572,0,0,1,183.942,92c3.759-13.339,8.947-21.351,8.947-21.351Z" fill="#fff"/>
        </g>
      </g>
      <g id="Group_721" data-name="Group 721">
        <path id="Path_838" data-name="Path 838" d="M177.906,258.19a9.893,9.893,0,0,0-6.64-4.2q.46-2.933.922-5.865a15.835,15.835,0,0,1,10.624,6.724Z" fill="#f77c16"/>
        <path id="Path_839" data-name="Path 839" d="M289.492,250.635a9.892,9.892,0,0,0-5.269,5.828l-5.623-1.905a15.827,15.827,0,0,1,8.432-9.326Z" fill="#fff"/>
        <path id="Path_840" data-name="Path 840" d="M422.337,175.244a9.891,9.891,0,0,0-7.781,1.1l-3.1-5.066a15.831,15.831,0,0,1,12.449-1.758Z" fill="#fff"/>
        <path id="Path_841" data-name="Path 841" d="M338.678,269.292a8.776,8.776,0,0,0-6.468,2.6l-3.743-3.706a14.044,14.044,0,0,1,10.351-4.156Z" fill="#e74f41"/>
        <path id="Path_842" data-name="Path 842" d="M418.285,133.066a8.771,8.771,0,0,0-6.468,2.6l-3.742-3.706a14.04,14.04,0,0,1,10.35-4.156Z" fill="#e74f41"/>
        <path id="Path_843" data-name="Path 843" d="M256.635,247.469a8.777,8.777,0,0,0-1.29,6.85l-5.137,1.162a14.047,14.047,0,0,1,2.063-10.962Z" fill="#e74f41"/>
        <path id="Path_844" data-name="Path 844" d="M220.839,269.138a8.778,8.778,0,0,0-3.8-5.841l2.909-4.39a14.044,14.044,0,0,1,6.087,9.346Z" fill="#e74f41"/>
        <path id="Path_845" data-name="Path 845" d="M112.443,288.282a9.109,9.109,0,0,0-6.641-2.875q0-2.733,0-5.467a14.574,14.574,0,0,1,10.626,4.6Z" fill="#f77c16"/>
        <path id="Path_846" data-name="Path 846" d="M403.246,93.338A9.109,9.109,0,0,0,397.4,97.6l-4.709-2.778A14.583,14.583,0,0,1,402.048,88Q402.646,90.67,403.246,93.338Z" fill="#f77c16"/>
        <path id="Path_847" data-name="Path 847" d="M357.671,306.547a17.1,17.1,0,0,0-8.2.547,21.545,21.545,0,0,1,14.872-8.464q.288,2.639.577,5.278A16.24,16.24,0,0,0,357.671,306.547Z" fill="#e74f41"/>
        <path id="Path_848" data-name="Path 848" d="M270.684,288.839a17.106,17.106,0,0,0-4.534,6.851,21.54,21.54,0,0,1,2.283-16.958l4.547,2.739A16.231,16.231,0,0,0,270.684,288.839Z" fill="#207ede"/>
        <path id="Path_849" data-name="Path 849" d="M80.115,114.891a17.1,17.1,0,0,0-7.863,2.38,21.545,21.545,0,0,1,12.582-11.6l1.752,5.012A16.229,16.229,0,0,0,80.115,114.891Z" fill="#207ede"/>
        <path id="Path_850" data-name="Path 850" d="M360.39,104.191a17.1,17.1,0,0,0-4.534,6.851,21.54,21.54,0,0,1,2.283-16.958l4.547,2.739A16.231,16.231,0,0,0,360.39,104.191Z" fill="#207ede"/>
        <path id="Path_851" data-name="Path 851" d="M132.257,267.862a17.1,17.1,0,0,1,8.082,1.466,21.538,21.538,0,0,0-13.823-10.084q-.585,2.589-1.168,5.179A16.225,16.225,0,0,1,132.257,267.862Z" fill="#fff"/>
        <path id="Path_852" data-name="Path 852" d="M73.59,170.542a17.1,17.1,0,0,1,8.083,1.466,21.541,21.541,0,0,0-13.824-10.084q-.583,2.589-1.168,5.179A16.22,16.22,0,0,1,73.59,170.542Z" fill="#fff"/>
        <path id="Path_853" data-name="Path 853" d="M146.262,97.48a17.115,17.115,0,0,1,8.083,1.467,21.543,21.543,0,0,0-13.824-10.085q-.583,2.59-1.168,5.18A16.229,16.229,0,0,1,146.262,97.48Z" fill="#fff"/>
        <path id="Path_854" data-name="Path 854" d="M130.838,313c4.071-2.361,10.441-4.783,18.383.229l2.581-2.088a17.466,17.466,0,0,0-24.565-2.592Z" fill="#e74f41"/>
        <path id="Path_855" data-name="Path 855" d="M98.056,138.136c4.071-2.362,10.441-4.784,18.383.228l2.581-2.088a17.466,17.466,0,0,0-24.565-2.591Z" fill="#e74f41"/>
        <path id="Path_856" data-name="Path 856" d="M116.429,241.927l7.957-1.04,5.561,4.432-13.048.247Z" fill="#2ea61c"/>
        <path id="Path_857" data-name="Path 857" d="M131.669,111.018l7.957-1.04,5.561,4.432-13.048.247Z" fill="#2ea61c"/>
        <path id="Path_858" data-name="Path 858" d="M245.107,274.444l2.771,7.531-3.094,6.4-3.122-12.671Z" fill="#2ea61c"/>
        <path id="Path_859" data-name="Path 859" d="M375.311,254.847,367.4,256.2l-4,5.876,12.539-3.616Z" fill="#2ea61c"/>
        <path id="Path_860" data-name="Path 860" d="M381.006,122.564,373.1,123.92l-4,5.876,12.539-3.616Z" fill="#2ea61c"/>
      </g>
    </g>
  </g>
</svg>
