<svg xmlns="http://www.w3.org/2000/svg" width="28.112" height="24.629" viewBox="0 0 28.112 24.629">
  <g id="iconfinder_support_477135" transform="translate(-11.114 -17.776)">
    <g id="Group_724" data-name="Group 724" transform="translate(27.043 21.35)">
      <path id="Path_861" data-name="Path 861" d="M83.461,70.182c0-.077.013-.147.013-.223,0-3.305-1.235-6.158-3.926-7.039l-1.82,2.6-2.022-2.567c-2.539.809-3.665,3.222-3.665,6.452q0,.39.022.776Z" transform="translate(-72.042 -54.546)" fill="none" stroke="#555" stroke-miterlimit="10" stroke-width="1.5"/>
      <path id="Path_862" data-name="Path 862" d="M80.262,32.94l.07-.583.116-.567.081-.237.108-.223.192-.317.131-.217.173-.181.2-.2.282-.195.351-.2.4-.163.327-.09.179-.049h1.259l.512.117.536.3.256.3.443.489.28.559.116.28.139.723.047.419v.163l.14.093.069.373-.023.42-.162.536-.164.257-.186.07L86,35.34l-.3.722-.21.3-.279.42-.466.373-.513.4-.4.116-.583.07-.676-.07-.652-.35-.35-.349-.3-.513-.42-.722-.185-.42-.234-.419-.116-.186-.186-.21-.117-.256-.024-.513.024-.443v-.163l.163-.07Z" transform="translate(-77.979 -29.723)" fill="none" stroke="#555" stroke-miterlimit="10" stroke-width="1.5"/>
    </g>
    <g id="Group_725" data-name="Group 725" transform="translate(11.864 22.848)">
      <path id="Path_863" data-name="Path 863" d="M26.709,82.234c0-.1.017-.191.017-.291,0-4.3-1.6-8.005-5.1-9.15l-2.366,3.381-2.629-3.338c-3.3,1.053-4.765,4.189-4.765,8.388,0,.338.01.674.029,1.009Z" transform="translate(-11.864 -63.428)" fill="none" stroke="#555" stroke-miterlimit="10" stroke-width="1.5"/>
      <path id="Path_864" data-name="Path 864" d="M25.558,39.424l.082-.682.136-.663.095-.278L26,37.541l.224-.371.153-.254.2-.212.231-.231.331-.228.41-.229.47-.191.384-.106.209-.058h1.473l.6.136.627.355.3.355.518.573.327.654.136.327.164.845.055.491v.191l.164.109.081.436-.027.491-.19.627-.191.3-.218.082-.164.6-.354.845-.246.355-.327.491-.545.436-.6.463-.463.136-.682.082-.791-.082-.763-.409-.409-.409-.354-.6L26.24,42.7l-.218-.491-.273-.491-.136-.218-.218-.245-.136-.3-.028-.6.028-.518v-.191l.191-.082Z" transform="translate(-21.859 -35.661)" fill="none" stroke="#555" stroke-miterlimit="10" stroke-width="1.5"/>
    </g>
    <g id="Group_726" data-name="Group 726" transform="translate(21.704 18.526)">
      <circle id="Ellipse_37" data-name="Ellipse 37" cx="0.757" cy="0.757" r="0.757" transform="translate(7.215 0.555)" fill="none" stroke="#555" stroke-miterlimit="10" stroke-width="1.5"/>
      <circle id="Ellipse_38" data-name="Ellipse 38" cx="1.059" cy="1.059" r="1.059" transform="translate(3.733)" fill="none" stroke="#555" stroke-miterlimit="10" stroke-width="1.5"/>
      <circle id="Ellipse_39" data-name="Ellipse 39" cx="1.211" cy="1.211" r="1.211" transform="translate(0 0.958)" fill="none" stroke="#555" stroke-miterlimit="10" stroke-width="1.5"/>
    </g>
  </g>
</svg>
