<svg id="Page-1" xmlns="http://www.w3.org/2000/svg" width="25.786" height="37.867" viewBox="0 0 25.786 37.867">
  <g id="rocket">
    <path id="Shape" d="M25.254,32.676a1.317,1.317,0,0,0,1.332-1.332V28.616A9.575,9.575,0,0,0,23.6,21.634a16.644,16.644,0,0,0,.227-2.5c0-9.256-8.8-18.187-9.191-18.544a1.333,1.333,0,0,0-1.884,0c-.357.39-9.126,9.321-9.126,18.544a15.394,15.394,0,0,0,.195,2.436A9.751,9.751,0,0,0,.8,28.616v2.728a1.317,1.317,0,0,0,1.332,1.332,1.317,1.317,0,0,0,1.332-1.332V28.616A7.271,7.271,0,0,1,4.6,24.752a25.741,25.741,0,0,0,1.591,3.735,1.307,1.307,0,0,0,1.2.714h5v2.143a1.332,1.332,0,0,0,2.663,0V29.2h5.034a1.45,1.45,0,0,0,1.2-.714,23.431,23.431,0,0,0,1.559-3.67,7.1,7.1,0,0,1,1.1,3.8v2.728A1.289,1.289,0,0,0,25.254,32.676Zm-6.008-6.138H15.024V24.395a1.332,1.332,0,1,0-2.663,0v2.143H8.2a20.85,20.85,0,0,1-1.591-4.579.948.948,0,0,0-.065-.292,13.974,13.974,0,0,1-.26-2.533c0-6.43,5.229-13.12,7.4-15.621,2.208,2.5,7.469,9.158,7.469,15.621A17.528,17.528,0,0,1,19.246,26.538Z" transform="translate(-0.8 -0.2)" fill="#45afe1"/>
    <path id="Shape-2" data-name="Shape" d="M25.9,36.906A4.806,4.806,0,1,0,30.706,32.1,4.816,4.816,0,0,0,25.9,36.906ZM30.706,34.8a2.143,2.143,0,1,1-2.143,2.143A2.141,2.141,0,0,1,30.706,34.8Z" transform="translate(-17.749 -21.74)" fill="#45afe1"/>
    <path id="Shape-3" data-name="Shape" d="M16.363,100.681V96.232a1.332,1.332,0,0,0-2.663,0v4.449a1.332,1.332,0,1,0,2.663,0Z" transform="translate(-9.511 -64.145)" fill="#45afe1"/>
    <path id="Shape-4" data-name="Shape" d="M61.763,100.681V96.232a1.332,1.332,0,0,0-2.663,0v4.449a1.317,1.317,0,0,0,1.332,1.332A1.337,1.337,0,0,0,61.763,100.681Z" transform="translate(-40.167 -64.145)" fill="#45afe1"/>
  </g>
</svg>
