<svg xmlns="http://www.w3.org/2000/svg" width="11.7" height="11.68" viewBox="0 0 11.7 11.68">
  <g id="Group_207" data-name="Group 207" transform="translate(-92.116 -92.401)">
    <path id="Path_220" data-name="Path 220" d="M100.464,98.241l2.834-2.828a1.764,1.764,0,0,0,0-2.5h0a1.767,1.767,0,0,0-2.492,0l-2.84,2.834-2.84-2.834a1.764,1.764,0,0,0-2.492,2.5l2.834,2.828-2.834,2.828a1.764,1.764,0,0,0,2.492,2.5l2.84-2.834,2.84,2.834a1.764,1.764,0,0,0,2.492-2.5Z" fill="#555"/>
    <path id="Path_221" data-name="Path 221" d="M95.126,92.915a1.764,1.764,0,0,0-2.492,2.5l2.834,2.828-2.834,2.828a1.764,1.764,0,0,0,2.492,2.5l2.84-2.834V95.749Z" fill="#555"/>
  </g>
</svg>
