<svg xmlns="http://www.w3.org/2000/svg" width="22" height="22" viewBox="0 0 22 22">
  <path id="Path_127" data-name="Path 127" d="M6.23,9.023a.859.859,0,1,1-1.719,0h0a.859.859,0,1,1,1.719,0Zm7.477,0h0a.859.859,0,1,0-1.719,0h0a.859.859,0,0,0,1.719,0Zm3.738,0h0a.859.859,0,1,0-1.719,0h0a.859.859,0,0,0,1.719,0ZM6.23,12.762a.859.859,0,1,0-1.719,0h0a.859.859,0,1,0,1.719,0Zm-.859,2.879a.859.859,0,0,0-.859.859h0a.859.859,0,1,0,1.719,0h0A.859.859,0,0,0,5.371,15.641Zm4.6-6.617a.859.859,0,1,0-1.719,0h0a.859.859,0,0,0,1.719,0Zm0,3.738a.859.859,0,0,0-1.719,0h0a.859.859,0,0,0,1.719,0Zm-.859,2.879a.859.859,0,0,0-.859.859h0a.859.859,0,0,0,1.719,0h0A.859.859,0,0,0,9.109,15.641ZM22,16.8a5.2,5.2,0,1,1-5.2-5.2A5.205,5.205,0,0,1,22,16.8Zm-1.719,0a3.48,3.48,0,1,0-3.48,3.48A3.484,3.484,0,0,0,20.281,16.8Zm-2.234-.859H17.66v-.9a.859.859,0,0,0-1.719,0V16.8a.859.859,0,0,0,.859.859h1.246a.859.859,0,1,0,0-1.719Zm.516-14.223H17.445V.859a.859.859,0,0,0-1.719,0v.859h-3.91V.859a.859.859,0,1,0-1.719,0v.859H6.23V.859a.859.859,0,1,0-1.719,0v.859H3.438A3.441,3.441,0,0,0,0,5.156V18.563A3.441,3.441,0,0,0,3.438,22h6.574a.859.859,0,0,0,0-1.719H3.438a1.721,1.721,0,0,1-1.719-1.719V5.156A1.721,1.721,0,0,1,3.438,3.438H4.512V4.3a.859.859,0,1,0,1.719,0V3.438H10.1V4.3a.859.859,0,1,0,1.719,0V3.438h3.91V4.3a.859.859,0,0,0,1.719,0V3.438h1.117a1.721,1.721,0,0,1,1.719,1.719v4.9a.859.859,0,0,0,1.719,0v-4.9A3.441,3.441,0,0,0,18.563,1.719Z" fill="#555"/>
</svg>
