<svg xmlns="http://www.w3.org/2000/svg" width="35.414" height="29.358" viewBox="0 0 35.414 29.358">
  <g id="Layer_5"   transform="translate(-14.518 -24.444)">
    <path id="Path_265"   d="M27.882,48.245a85.018,85.018,0,0,0,6.354,7c3.06,3.06,8.177,8.411,10,6.588a1.861,1.861,0,0,0,.53-1.412,2.287,2.287,0,0,0,2.5-2.091c1.217.045,1.713-1.314,1.764-2.532,0,0,2.029.325,2.59-.236a1.559,1.559,0,0,0,.265-2.206c-1.708-1.7-6.793-6.734-6.793-6.734-2.471,2-4.263.087-4.263.087s-3.562,4.507-5.56,1.8,7.991-9.584,7.991-9.584" transform="translate(-8.245 -8.971)" fill="none" stroke="#fff" stroke-miterlimit="10" stroke-width="1"/>
    <line id="Line_40"   x1="5.382" y1="5.382" transform="translate(31.138 46.065)" fill="none" stroke="#fff" stroke-miterlimit="10" stroke-width="1"/>
    <line id="Line_41"  x1="5.587" y1="5.587" transform="translate(33.432 43.771)" fill="none" stroke="#fff" stroke-miterlimit="10" stroke-width="1"/>
    <line id="Line_42"   x1="5.675" y1="5.675" transform="translate(35.638 41.565)" fill="none" stroke="#fff" stroke-miterlimit="10" stroke-width="1"/>
    <path id="Path_266"  d="M94.63,67.682c.834-.575,2.544-2.132,2.516-3.382" transform="translate(-51.728 -24.03)" fill="none" stroke="#fff" stroke-miterlimit="10" stroke-width="1"/>
    <path id="Path_267"   d="M35.223,77.08c-.952.952-2.768,2.018-.8,3.991L39.653,86.3c1.854,1.854,3.7,0,4.245-.54" transform="translate(-11.934 -33.828)" fill="none" stroke="#fff" stroke-miterlimit="10" stroke-width="1"/>
    <line id="Line_43"  y1="2.238" x2="2.238" transform="translate(23.048 45.563)" fill="none" stroke="#fff" stroke-miterlimit="10" stroke-width="1"/>
    <line id="Line_44"   y1="2.234" x2="2.234" transform="translate(25.359 47.874)" fill="none" stroke="#fff" stroke-miterlimit="10" stroke-width="1"/>
    <line id="Line_45"   y1="2.238" x2="2.234" transform="translate(27.492 50.003)" fill="none" stroke="#fff" stroke-miterlimit="10" stroke-width="1"/>
    <path id="Path_268"   d="M55.65,38.127a14.256,14.256,0,0,1,2.844,2.7" transform="translate(-26.334 -8.452)" fill="none" stroke="#fff" stroke-miterlimit="10" stroke-width="1"/>
    <path id="Path_269"  d="M.833,0H3.907A.833.833,0,0,1,4.74.833v15.72a.833.833,0,0,1-.833.833H.833A.833.833,0,0,1,0,16.553V.833A.833.833,0,0,1,.833,0Z" transform="translate(33.579 28.625) rotate(-45)" fill="none" stroke="#fff" stroke-width="1"/>
    <rect id="Rectangle_1640"   width="4.74" height="17.386" rx="2.37" transform="translate(27.519 25.152) rotate(45)" fill="none" stroke="#fff" stroke-miterlimit="10" stroke-width="1"/>
  </g>
</svg>
